<svg xmlns="http://www.w3.org/2000/svg" width="436" height="365" viewBox="0 0 436 365" version="1.1"><path d="M 3.400 3.400 C 1.530 5.270, 0.002 7.632, 0.004 8.650 C 0.006 9.980, 0.566 9.583, 1.995 7.241 C 3.088 5.448, 5.448 3.088, 7.241 1.995 C 9.583 0.566, 9.980 0.006, 8.650 0.004 C 7.633 0.002, 5.270 1.530, 3.400 3.400 M 427.980 1.752 C 429.894 2.713, 432.482 5.029, 433.730 6.898 C 436.127 10.485, 436.771 10.365, 434.875 6.684 C 432.816 2.686, 429.681 -0, 427.076 0.002 C 424.652 0.003, 424.706 0.107, 427.980 1.752 M 245.500 24.008 C 240.550 25.659, 234.700 27.519, 232.500 28.140 C 223.606 30.653, 221.413 31.310, 219.500 32.037 C 218.400 32.455, 214.125 33.783, 210 34.987 C 198.439 38.362, 196.930 38.818, 190.500 40.882 C 184.546 42.793, 178.426 44.655, 164 48.944 C 159.875 50.171, 154.025 51.975, 151 52.953 C 147.975 53.932, 143.475 55.303, 141 56 C 138.525 56.697, 134.025 58.064, 131 59.038 C 124.378 61.168, 112.996 64.602, 107.500 66.126 C 105.300 66.737, 102.938 67.394, 102.250 67.587 C 99.753 68.287, 101.087 69.927, 104.750 70.660 C 111.774 72.065, 116.465 71.480, 125 68.134 C 129.675 66.301, 135.750 63.991, 138.500 63 C 144.933 60.682, 158.953 55.406, 166 52.651 C 172.058 50.282, 175.602 50.206, 197 51.991 C 208.886 52.983, 221.982 53.997, 267.500 57.453 C 278.500 58.288, 289.750 59.156, 292.500 59.381 L 297.500 59.791 313.791 43.646 L 330.081 27.500 326.791 26.751 C 324.981 26.340, 316.525 25.555, 308 25.008 C 288.273 23.742, 268.198 22.287, 260.500 21.567 C 255.524 21.102, 252.963 21.518, 245.500 24.008 M 210 26.094 C 207.525 26.578, 202.575 27.447, 199 28.025 C 195.425 28.603, 189.912 29.508, 186.750 30.038 C 183.588 30.567, 178.300 31.450, 175 32 C 171.700 32.550, 166.412 33.433, 163.250 33.962 C 160.088 34.492, 154.350 35.417, 150.500 36.019 C 138.734 37.859, 135.734 39.091, 134.846 42.450 C 134.417 44.072, 134.279 45.612, 134.538 45.872 C 134.798 46.131, 151.546 42.172, 171.755 37.072 C 191.965 31.972, 209.963 27.571, 211.750 27.291 C 213.537 27.010, 215 26.380, 215 25.891 C 215 25.401, 214.887 25.048, 214.750 25.107 C 214.613 25.166, 212.475 25.610, 210 26.094 M 324.388 40.176 C 320.099 45.854, 316.007 51.095, 315.295 51.821 C 314.583 52.548, 314 53.453, 314 53.832 C 314 54.210, 312.975 55.641, 311.722 57.010 C 310.468 58.380, 308.377 61.012, 307.075 62.861 C 304.745 66.167, 304.692 66.765, 303.837 99.861 C 303.359 118.362, 302.331 142.944, 301.553 154.486 C 300.774 166.028, 300.288 175.621, 300.470 175.804 C 300.653 175.987, 307.340 156.400, 315.329 132.278 L 329.855 88.420 330.934 67.960 C 331.528 56.707, 332.241 45.813, 332.519 43.750 C 332.796 41.688, 332.681 40, 332.262 40.001 C 331.371 40.001, 322.776 54.415, 317.653 64.500 C 314.895 69.929, 313.861 73.519, 313.044 80.500 C 311.437 94.237, 309.885 97.650, 310.500 86.096 C 310.775 80.924, 311 74.601, 311 72.044 C 311 67.976, 311.972 65.842, 318.790 54.948 C 329.069 38.523, 333.329 30.995, 332.700 30.367 C 332.417 30.084, 328.676 34.498, 324.388 40.176 M 152.500 71.621 C 145.201 74.430, 132.540 80.967, 129.750 83.367 C 124.714 87.699, 125.316 88.087, 140 89.972 C 144.675 90.572, 151.650 91.485, 155.500 92 C 162.198 92.896, 169.804 93.860, 186.750 95.960 C 191.012 96.489, 199 97.410, 204.500 98.008 C 210 98.605, 218.100 99.510, 222.500 100.018 C 226.900 100.527, 236.912 101.483, 244.750 102.143 C 252.588 102.804, 259 103.716, 259 104.172 C 259 104.627, 257.988 105.007, 256.750 105.015 C 255.512 105.024, 253.907 105.406, 253.183 105.866 C 252.354 106.392, 254.167 106.942, 258.080 107.351 C 270.756 108.675, 271.098 108.584, 277.143 102.250 C 284.043 95.020, 292 85.225, 292 83.961 C 292 83.432, 290.174 83, 287.943 83 C 285.711 83, 280.874 82.573, 277.193 82.051 C 273.512 81.530, 265.325 80.605, 259 79.997 C 252.675 79.389, 243.675 78.488, 239 77.995 C 234.325 77.502, 225.325 76.617, 219 76.027 C 203.638 74.595, 188.461 73.119, 177.500 71.990 C 158.867 70.070, 156.615 70.037, 152.500 71.621 M 124.675 99.807 C 122.513 102.196, 119.399 114.242, 117.128 129 C 114.428 146.550, 113.857 152.794, 114.893 153.434 C 116.297 154.302, 134.398 149.407, 146.196 144.969 C 165 137.896, 189.303 123.794, 201 113.170 C 205.172 109.380, 205.322 109.079, 203.060 109.041 C 201.718 109.018, 198.118 108.567, 195.060 108.038 C 192.002 107.508, 185.675 106.595, 181 106.007 C 163.852 103.852, 149.242 101.805, 138 99.983 C 134.975 99.493, 131.088 98.868, 129.362 98.593 C 127.187 98.248, 125.749 98.620, 124.675 99.807 M 281.135 109.132 L 278 113.394 278 134.138 C 278 146.043, 278.402 155.130, 278.942 155.464 C 279.461 155.785, 281.538 150.974, 283.559 144.773 L 287.232 133.500 286.653 120.087 C 286.334 112.709, 285.667 106.267, 285.171 105.771 C 284.635 105.235, 282.997 106.599, 281.135 109.132 M 263.440 116.097 C 262.790 117.148, 251.220 124.968, 246 127.883 C 232.342 135.512, 213.694 143.907, 202.509 147.461 C 185.420 152.892, 172.277 155.993, 158 157.962 C 153.325 158.607, 147.062 159.555, 144.083 160.068 C 141.104 160.580, 136.829 161.014, 134.583 161.030 C 130.942 161.058, 130.716 161.192, 132.500 162.278 C 135.333 164.001, 155.517 163.615, 166 161.636 C 175.649 159.815, 189.799 156.640, 195 155.129 C 196.925 154.570, 200.075 153.675, 202 153.139 C 209.179 151.141, 218.789 148.045, 228.250 144.683 C 233.613 142.776, 238 141.329, 238 141.467 C 238 141.604, 235.589 143.318, 232.642 145.274 C 218.112 154.921, 193.366 164.842, 177.250 167.480 C 174.912 167.863, 173 168.586, 173 169.088 C 173 169.590, 173.166 170, 173.369 170 C 173.572 170, 177.509 170.625, 182.119 171.390 C 190.291 172.745, 199.717 173.978, 217 175.953 C 229.511 177.382, 260.804 179.223, 266 178.836 L 270.500 178.500 271.144 169.500 C 272.012 157.371, 272.153 125.397, 271.364 119.640 C 270.753 115.184, 270.597 115, 267.423 115 C 265.605 115, 263.813 115.494, 263.440 116.097 M 335.118 123.681 C 334.525 126.331, 332.680 134.125, 331.017 141 C 328.038 153.322, 318.181 195.374, 317.248 199.746 C 316.920 201.280, 317.518 202.616, 319.134 203.963 C 321.637 206.048, 324 206.601, 324 205.103 C 324 203.450, 333.886 138.717, 336.133 125.653 C 337.364 118.498, 336.606 117.026, 335.118 123.681 M 327.707 127.750 C 327.481 128.162, 326.143 132.100, 324.735 136.500 C 316.640 161.784, 307.445 190.747, 302.509 206.500 C 299.408 216.400, 296.689 225.063, 296.467 225.750 C 296.244 226.438, 296.499 227, 297.031 227 C 297.564 227, 298.015 226.662, 298.033 226.250 C 298.052 225.838, 299.964 223.404, 302.283 220.841 L 306.500 216.183 314.844 182.341 C 319.433 163.729, 323.579 147.150, 324.056 145.500 C 324.533 143.850, 325.778 139.012, 326.822 134.750 C 328.561 127.651, 328.800 125.755, 327.707 127.750 M 115.001 170.250 C 115.014 172.579, 118.300 187.895, 119.668 192 C 121.233 196.698, 122.073 197.769, 125.428 199.342 C 127.589 200.355, 130.876 201.430, 132.732 201.731 C 136.029 202.266, 136.092 202.211, 135.406 199.390 C 134.173 194.320, 130.138 185.967, 126.846 181.667 C 121.119 174.188, 114.991 168.281, 115.001 170.250 M 151 173.486 C 157.317 175.432, 169.655 177.689, 197 181.899 C 208.057 183.601, 217.218 184.161, 216.558 183.094 C 216.225 182.556, 213.826 181.848, 211.227 181.521 C 197.888 179.844, 189.970 178.775, 185 177.981 C 181.975 177.498, 175.900 176.596, 171.500 175.978 C 167.100 175.359, 161.475 174.463, 159 173.987 C 156.525 173.510, 152.700 172.891, 150.500 172.610 L 146.500 172.100 151 173.486 M 287.051 178.157 C 285.995 179.894, 283.196 186.981, 280.832 193.907 C 276.736 205.903, 276.532 207.055, 276.516 218.198 C 276.505 226.121, 276.896 230.292, 277.726 231.124 C 282.435 235.840, 289.636 212.032, 290.694 188.250 C 291.328 173.994, 290.678 172.193, 287.051 178.157 M 147.204 177.111 C 147.635 178.406, 152.902 179.907, 164 181.897 C 167.025 182.440, 171.975 183.327, 175 183.869 C 178.025 184.411, 184.325 185.381, 189 186.024 C 193.675 186.667, 199.660 187.600, 202.299 188.097 C 208.337 189.233, 218 189.272, 218 188.161 C 218 187.700, 214.063 186.782, 209.250 186.123 C 192.179 183.784, 177.233 181.373, 165 178.985 C 148.930 175.848, 146.705 175.614, 147.204 177.111 M 147 181.922 C 147 183.050, 151.387 184.418, 160 185.976 C 163.575 186.622, 168.525 187.540, 171 188.016 C 173.475 188.491, 178.650 189.403, 182.500 190.042 C 186.350 190.682, 191.607 191.597, 194.183 192.077 C 202.145 193.561, 218.380 194.425, 217.703 193.328 C 217.152 192.437, 208.799 190.885, 188.500 187.903 C 176.003 186.067, 166.185 184.303, 155.807 182.029 C 149.993 180.754, 147 180.718, 147 181.922 M 146.668 187.068 C 147.908 188.308, 169.033 192.630, 190.500 196.035 C 194.350 196.646, 199.938 197.563, 202.917 198.073 C 210.065 199.296, 219 199.256, 219 198 C 219 197.450, 217.624 197, 215.943 197 C 214.261 197, 210.999 196.588, 208.693 196.085 C 206.387 195.582, 200.675 194.654, 196 194.024 C 191.325 193.393, 185.475 192.489, 183 192.014 C 180.525 191.540, 175.800 190.669, 172.500 190.080 C 169.200 189.491, 163.031 188.332, 158.792 187.504 C 149.500 185.691, 145.134 185.534, 146.668 187.068 M 263 188.935 C 253.361 191.878, 243.976 199.809, 239.850 208.500 C 235.408 217.857, 235.695 218.667, 243.750 219.472 C 254.983 220.595, 256.779 219.147, 261.788 204.920 C 264.438 197.393, 266.732 187.858, 265.838 188.086 C 265.652 188.133, 264.375 188.515, 263 188.935 M 146 190.981 C 146 191.520, 147.238 192.236, 148.750 192.571 C 150.262 192.906, 152.850 193.551, 154.500 194.004 C 156.150 194.458, 160.650 195.341, 164.500 195.967 C 168.350 196.593, 173.300 197.502, 175.500 197.987 C 177.700 198.473, 183.100 199.387, 187.500 200.018 C 191.900 200.650, 197.750 201.551, 200.500 202.020 C 210.095 203.657, 219 204.197, 219 203.141 C 219 202.581, 216.863 201.843, 214.250 201.502 C 207.491 200.619, 180.361 196.073, 163.250 192.956 C 157.034 191.824, 146.605 190.014, 146.250 190.006 C 146.113 190.003, 146 190.441, 146 190.981 M 146 196 C 146 196.550, 146.358 197, 146.795 197 C 147.233 197, 152.070 197.906, 157.545 199.014 C 163.020 200.121, 170.200 201.505, 173.500 202.089 C 176.800 202.673, 181.525 203.530, 184 203.994 C 186.475 204.457, 192.550 205.372, 197.500 206.027 C 202.450 206.682, 209.187 207.610, 212.470 208.089 C 215.969 208.599, 218.813 208.587, 219.340 208.060 C 220.467 206.933, 213.844 205.013, 208.799 205.006 C 206.764 205.003, 202.939 204.586, 200.299 204.080 C 195.802 203.219, 191.275 202.420, 177.250 200.014 C 174.088 199.471, 167.020 198.121, 161.545 197.014 C 150.531 194.786, 146 194.490, 146 196 M 146 199.933 C 146 201.261, 151.508 202.586, 171.250 206.004 C 174.412 206.552, 179.588 207.449, 182.750 207.998 C 193.589 209.879, 215.846 213, 218.423 213 C 219.840 213, 221 212.615, 221 212.145 C 221 211.675, 216.838 210.742, 211.750 210.073 C 206.662 209.403, 200.475 208.452, 198 207.960 C 195.525 207.468, 186.525 205.917, 178 204.513 C 169.475 203.110, 159.350 201.295, 155.500 200.481 C 147.316 198.749, 146 198.673, 146 199.933 M 118.503 205.112 C 120.679 212.273, 123.333 216.892, 125.836 217.877 C 129.974 219.505, 154.568 224.176, 179.500 228.069 C 186.650 229.185, 194.975 230.491, 198 230.970 C 201.025 231.450, 208.675 232.570, 215 233.459 C 221.325 234.349, 229.237 235.509, 232.582 236.038 C 243.114 237.704, 254.049 237.267, 257.710 235.035 C 261.412 232.778, 265.715 226.641, 266.149 223 C 266.540 219.717, 265.569 219.677, 259 222.706 C 253.517 225.234, 253.459 225.238, 240.500 224.078 C 233.350 223.438, 224.800 222.500, 221.500 221.994 C 218.200 221.488, 211.450 220.580, 206.500 219.976 C 201.550 219.373, 195.250 218.493, 192.500 218.023 C 189.750 217.552, 183.900 216.637, 179.500 215.991 C 175.100 215.344, 167 213.951, 161.500 212.896 C 156 211.841, 148.800 210.479, 145.500 209.869 C 142.200 209.259, 135.675 207.643, 131 206.278 C 117.416 202.313, 117.660 202.336, 118.503 205.112 M 146 203.941 C 146 204.459, 146.457 205.165, 147.016 205.510 C 148.934 206.695, 181.830 212.157, 207 215.470 C 220.409 217.235, 221 217.265, 221 216.178 C 221 215.726, 216.613 214.793, 211.250 214.104 C 205.887 213.416, 199.250 212.460, 196.500 211.980 C 193.750 211.499, 188.125 210.582, 184 209.942 C 179.875 209.301, 169.942 207.477, 161.928 205.888 C 145.375 202.607, 146 202.684, 146 203.941 M 21.436 273.400 C 20.117 278.655, 20.982 279.462, 28.509 280 L 35.500 280.500 36 299 L 36.500 317.500 41.728 317.801 L 46.955 318.103 47.228 299.301 L 47.500 280.500 54.805 280.205 L 62.111 279.910 61.805 275.705 L 61.500 271.500 41.774 271.229 L 22.049 270.958 21.436 273.400 M 69.516 274.177 C 69.185 276.005, 69.046 286.500, 69.207 297.500 L 69.500 317.500 75 317.500 L 80.500 317.500 80.794 310.250 L 81.088 303 85.294 303.005 C 89.470 303.010, 89.531 303.063, 93.882 310.505 L 98.265 318 103.632 318 C 109.520 318, 110.038 317.283, 107.131 313.154 C 106.102 311.694, 104.272 308.547, 103.064 306.159 C 100.953 301.988, 100.938 301.764, 102.683 300.441 C 103.682 299.683, 104.786 299.049, 105.136 299.032 C 106.684 298.954, 109 291.742, 109 287 C 109 280.124, 106.741 275.600, 102.173 273.327 C 99.256 271.876, 95.579 271.434, 84.309 271.177 L 70.118 270.854 69.516 274.177 M 134.194 273.750 C 132.396 278.462, 122.928 303.184, 120.383 309.812 C 119.050 313.284, 118.220 316.546, 118.538 317.062 C 118.857 317.578, 121.269 318, 123.899 318 C 128.590 318, 128.705 317.925, 130 314 L 131.320 310 140.910 310.010 L 150.500 310.020 152.176 314.010 C 153.824 317.934, 153.937 318, 159.034 318 C 164.184 318, 164.213 317.982, 163.548 315.250 C 163.179 313.738, 161.132 308, 158.999 302.500 C 156.865 297, 153.258 287.663, 150.984 281.750 L 146.848 271 141.045 271 C 135.636 271, 135.172 271.186, 134.194 273.750 M 172.448 272.274 C 172.180 272.974, 172.081 283.437, 172.230 295.524 L 172.500 317.500 177.750 317.802 L 183 318.105 183 303.611 C 183 295.640, 183.402 288.870, 183.892 288.567 C 184.383 288.263, 188.804 294.649, 193.717 302.758 L 202.649 317.500 209.843 317.794 L 217.037 318.088 216.769 294.794 L 216.500 271.500 211.500 271.500 L 206.500 271.500 206.223 286.250 C 206.071 294.363, 205.571 301, 205.113 301 C 204.238 301, 199.551 293.941, 191.503 280.500 C 188.868 276.100, 186.215 272.169, 185.606 271.765 C 183.657 270.471, 172.982 270.883, 172.448 272.274 M 231.632 273.011 C 229.504 274.073, 227.163 275.742, 226.428 276.721 C 224.252 279.621, 223.644 286.474, 225.142 291.206 C 227.004 297.083, 230.863 298.888, 241.703 298.952 C 251.771 299.011, 255 300.262, 255 304.104 C 255 307.763, 251.715 310, 246.343 310 C 240.578 310, 237.145 308.511, 236.007 305.518 C 235.159 303.288, 234.474 303, 230.025 303 L 225 303 225 306.923 C 225 314.489, 232.755 319, 245.761 319 C 253.587 319, 261.388 316.594, 263.894 313.407 C 268.522 307.525, 267.394 296.841, 261.719 292.800 C 259.044 290.895, 257.179 290.546, 249.041 290.429 C 237.296 290.260, 236 289.772, 236 285.515 C 236 280.887, 237.786 279.851, 245.163 280.200 C 251.213 280.486, 251.568 280.646, 253 283.728 C 254.409 286.761, 254.819 286.958, 259.750 286.978 C 264.670 286.999, 265 286.845, 265 284.534 C 265 279.938, 261.861 275.111, 257.499 272.999 C 251.751 270.217, 237.216 270.223, 231.632 273.011 M 286.160 272.361 C 275.899 276.077, 271.045 290.295, 275.007 305.033 C 278.066 316.411, 293.314 322.066, 308.654 317.510 C 314.724 315.708, 317.498 313.445, 319.493 308.671 C 321.725 303.329, 321.504 303, 315.688 303 C 310.976 303, 310.132 303.330, 308.214 305.925 C 306.452 308.308, 305.049 308.975, 300.640 309.526 C 290.401 310.805, 284.998 305.734, 285.002 294.849 C 285.003 288.559, 287.434 283.060, 291 281.279 C 294 279.780, 301.866 279.618, 305.453 280.982 C 306.874 281.522, 308.467 283.097, 308.993 284.482 C 309.857 286.753, 310.492 287, 315.475 287 C 321.459 287, 321.721 286.661, 319.621 281.636 C 318.080 277.946, 314.187 274.523, 309.128 272.409 C 305.004 270.686, 290.869 270.657, 286.160 272.361 M 345.598 273.250 C 343.964 275.791, 329 315.109, 329 316.864 C 329 317.563, 330.956 318, 334.080 318 C 339.079 318, 339.186 317.936, 340.732 314 L 342.303 310 351.644 310 L 360.984 310 362.745 313.750 C 364.414 317.306, 364.777 317.516, 369.753 317.802 C 372.639 317.969, 375.002 317.744, 375.005 317.302 C 375.008 316.861, 373.658 313.012, 372.005 308.750 C 369.296 301.764, 367.564 297.189, 360.737 279 C 357.893 271.422, 357.427 271, 351.901 271 C 347.962 271, 346.773 271.424, 345.598 273.250 M 374.424 274.554 C 374.053 276.531, 374.143 278.542, 374.625 279.022 C 375.106 279.502, 378.425 280.031, 382 280.197 L 388.500 280.500 388.772 299.250 L 389.044 318 394.500 318 L 399.956 318 400.228 299.250 L 400.500 280.500 407.805 280.205 L 415.111 279.910 414.805 275.705 L 414.500 271.500 394.799 271.229 L 375.098 270.958 374.424 274.554 M 81 286.958 L 81 293 88.525 293 C 95.813 293, 96.082 292.914, 97.096 290.250 C 97.738 288.565, 97.812 286.338, 97.287 284.500 C 96.441 281.536, 96.338 281.496, 88.716 281.208 L 81 280.916 81 286.958 M 138.255 292.946 C 137.139 296.216, 136.474 299.141, 136.779 299.446 C 137.512 300.179, 144.506 300.161, 145.242 299.424 C 145.992 298.675, 142.053 287, 141.051 287 C 140.630 287, 139.372 289.676, 138.255 292.946 M 349.134 292.853 C 347.960 296.072, 347 298.997, 347 299.353 C 347 300.151, 355.447 300.220, 356.239 299.428 C 356.911 298.756, 352.791 287.002, 351.884 287.001 C 351.545 287, 350.308 289.634, 349.134 292.853 M 315 337.441 C 315 341.147, 315.435 344, 316 344 C 316.554 344, 317 341.353, 317 338.059 C 317 334.791, 316.550 331.840, 316 331.500 C 315.372 331.112, 315 333.323, 315 337.441 M 36.250 332.689 C 37.645 333.054, 38 334.246, 38 338.573 C 38 341.558, 38.450 344, 39 344 C 39.550 344, 40 341.558, 40 338.573 C 40 334.246, 40.355 333.054, 41.750 332.689 C 42.712 332.438, 41.475 332.232, 39 332.232 C 36.525 332.232, 35.288 332.438, 36.250 332.689 M 51.629 335.917 C 51.285 338.071, 51.382 340.858, 51.845 342.109 C 52.682 344.372, 52.690 344.370, 53.362 341.692 C 54.219 338.280, 56.292 338.257, 58.750 341.631 L 60.667 344.263 60.697 339.381 C 60.734 333.434, 59.726 332, 55.505 332 C 52.499 332, 52.209 332.293, 51.629 335.917 M 73.321 333.750 C 72.982 334.712, 72.096 337.017, 71.352 338.872 C 69.509 343.468, 69.655 344.623, 71.829 342.655 C 74.211 340.499, 77.644 340.542, 78.875 342.742 C 81.018 346.571, 81.121 342.726, 79.015 337.536 C 76.763 331.990, 74.476 330.469, 73.321 333.750 M 89 337.441 C 89 340.434, 89.450 343.160, 90 343.500 C 90.604 343.873, 91 342.510, 91 340.059 C 91 334.929, 92.260 334.911, 95.120 340 C 98.453 345.929, 100 345.242, 100 337.833 C 100 331.663, 98.908 330.183, 98.617 335.959 C 98.402 340.237, 96.856 340.160, 94.502 335.753 C 93.361 333.617, 91.748 332.004, 90.750 332.003 C 89.297 332, 89 332.925, 89 337.441 M 109.079 333.405 C 107.448 335.370, 108.467 336.879, 112.591 338.602 C 114.881 339.559, 115.755 340.474, 115.362 341.500 C 114.662 343.324, 111.882 343.455, 110.075 341.750 C 109.006 340.741, 108.837 340.789, 109.202 342 C 109.835 344.101, 115.357 344.479, 116.973 342.532 C 118.060 341.223, 117.978 340.634, 116.483 338.981 C 115.497 337.892, 113.908 337, 112.952 337 C 110.608 337, 109.584 334.097, 111.649 333.304 C 112.538 332.963, 114.154 333.240, 115.241 333.919 C 116.844 334.919, 117.135 334.902, 116.782 333.826 C 116.150 331.903, 110.578 331.598, 109.079 333.405 M 125.714 332.620 C 124.589 333.745, 124.882 342.809, 126.067 343.542 C 126.655 343.905, 127.381 343.257, 127.684 342.101 C 128.023 340.802, 129.048 339.994, 130.367 339.985 C 133.785 339.960, 135.187 338.517, 134.830 335.391 C 134.534 332.795, 134.089 332.470, 130.464 332.203 C 128.244 332.040, 126.106 332.227, 125.714 332.620 M 144.655 333.829 C 141.089 337.770, 143.947 344.010, 149.307 343.985 C 152.968 343.967, 154.240 343.288, 155.736 340.553 C 156.901 338.422, 155.762 334.105, 153.687 332.786 C 151.479 331.382, 146.332 331.976, 144.655 333.829 M 164 338 C 164 341.333, 164.444 344, 165 344 C 165.550 344, 166 343.127, 166 342.059 C 166 340.991, 166.441 339.846, 166.979 339.513 C 168.393 338.639, 172 340.810, 172 342.535 C 172 343.341, 172.380 344, 172.846 344 C 173.858 344, 173.666 334.886, 172.617 333.190 C 172.213 332.535, 170.109 332, 167.941 332 L 164 332 164 338 M 183.750 333.031 C 185.665 333.801, 186 334.684, 186 338.968 C 186 341.735, 186.450 344, 187 344 C 187.550 344, 188 341.558, 188 338.573 C 188 334.246, 188.355 333.054, 189.750 332.689 C 190.713 332.438, 189.250 332.208, 186.500 332.179 C 182.560 332.138, 181.977 332.318, 183.750 333.031 M 199 338 L 199 344 203.750 343.868 C 208.208 343.745, 208.286 343.699, 205.011 343.118 C 200.149 342.257, 199.517 339.048, 204.177 338.882 L 207.500 338.763 204.500 338.125 C 202.433 337.686, 201.403 336.809, 201.189 335.308 C 200.923 333.449, 201.438 333.070, 204.689 332.732 C 208.256 332.362, 208.196 332.325, 203.750 332.168 L 199 332 199 338 M 228.032 332.750 C 228.049 333.163, 228.724 334.374, 229.532 335.441 C 230.339 336.509, 231 338.871, 231 340.691 C 231 342.511, 231.450 344, 232 344 C 232.550 344, 233.002 342.988, 233.004 341.750 C 233.006 340.512, 233.930 337.987, 235.058 336.137 C 237.473 332.175, 236.680 330.447, 234.048 333.937 L 232.232 336.344 230.875 334.172 C 229.549 332.048, 227.969 331.258, 228.032 332.750 M 256 338 L 256 344 260.750 343.832 C 265.102 343.678, 265.186 343.631, 261.750 343.272 L 258 342.879 258 337.440 C 258 334.448, 257.550 332, 257 332 C 256.444 332, 256 334.667, 256 338 M 274.655 333.829 C 270.925 337.950, 273.865 344.015, 279.579 343.985 C 283.076 343.966, 284.314 343.233, 285.885 340.250 C 287.119 337.908, 286.048 334.400, 283.600 332.765 C 281.516 331.373, 276.318 331.991, 274.655 333.829 M 296.524 333.358 C 295.367 334.205, 294.667 335.955, 294.667 338 C 294.667 342.186, 297.092 344, 302.691 344 C 306.812 344, 307 343.869, 307 341 C 307 338.254, 306.725 338.012, 303.750 338.136 C 301.400 338.235, 301.123 338.392, 302.750 338.706 C 305.277 339.192, 305.563 340.037, 303.800 341.800 C 299.990 345.610, 294.972 340.833, 297.048 335.373 C 297.933 333.047, 298.448 332.811, 301.546 333.314 C 303.619 333.650, 304.808 333.498, 304.463 332.941 C 303.599 331.542, 298.652 331.803, 296.524 333.358 M 325.667 332.667 C 323.862 334.471, 325.264 336.888, 328.975 338.374 C 331.801 339.504, 332.782 340.403, 332.368 341.482 C 331.674 343.291, 328.873 343.473, 327.217 341.817 C 326.566 341.166, 325.701 340.965, 325.296 341.371 C 324.088 342.578, 327.274 344.041, 330.500 343.761 C 332.760 343.564, 333.579 342.940, 333.822 341.229 C 334.078 339.430, 333.387 338.642, 330.503 337.437 C 326.402 335.723, 326.327 333.400, 330.382 333.691 C 331.847 333.797, 332.784 333.459, 332.464 332.941 C 331.800 331.867, 326.673 331.660, 325.667 332.667 M 344.250 332.689 C 345.645 333.054, 346 334.246, 346 338.573 C 346 341.558, 346.450 344, 347 344 C 347.550 344, 348 341.558, 348 338.573 C 348 334.246, 348.355 333.054, 349.750 332.689 C 350.712 332.438, 349.475 332.232, 347 332.232 C 344.525 332.232, 343.288 332.438, 344.250 332.689 M 360 338 C 360 341.333, 360.444 344, 361 344 C 361.556 344, 362 341.333, 362 338 C 362 334.667, 361.556 332, 361 332 C 360.444 332, 360 334.667, 360 338 M 371.571 333.571 C 370.707 334.436, 370 336.429, 370 338 C 370 339.571, 370.707 341.564, 371.571 342.429 C 373.567 344.424, 379.367 344.468, 381 342.500 C 381.785 341.554, 381.852 341, 381.181 341 C 380.597 341, 379.840 341.450, 379.500 342 C 378.302 343.939, 374.076 343.045, 372.408 340.500 C 370.886 338.176, 370.891 337.815, 372.483 335.385 C 373.938 333.165, 374.714 332.854, 377.621 333.326 C 379.644 333.654, 380.807 333.497, 380.463 332.941 C 379.524 331.420, 373.280 331.863, 371.571 333.571 M 394.321 333.750 C 393.982 334.712, 393.096 337.017, 392.352 338.872 C 390.509 343.468, 390.655 344.623, 392.829 342.655 C 395.116 340.585, 398.362 340.526, 400.020 342.524 C 402.177 345.123, 402.132 343.522, 399.883 337.645 C 397.724 332.003, 395.488 330.437, 394.321 333.750 M 54 335.500 C 54 338.065, 55.430 338.647, 57.896 337.086 C 59.821 335.867, 58.512 333, 56.031 333 C 54.531 333, 54 333.654, 54 335.500 M 128 335.441 C 128 336.784, 128.409 338.135, 128.910 338.444 C 130.652 339.521, 133 337.770, 133 335.393 C 133 333.507, 132.470 333, 130.500 333 C 128.516 333, 128 333.504, 128 335.441 M 145.965 335.565 C 144.483 338.334, 145.216 340.472, 148.317 342.428 C 150.673 343.915, 153.416 342.002, 153.822 338.589 C 154.481 333.051, 148.535 330.763, 145.965 335.565 M 166.336 334.567 C 166.005 335.429, 166.214 336.614, 166.800 337.200 C 168.355 338.755, 171 337.390, 171 335.031 C 171 332.565, 167.247 332.192, 166.336 334.567 M 276.005 335.491 C 274.196 338.870, 275.997 343, 279.279 343 C 282.318 343, 284 341.219, 284 338 C 284 332.791, 278.391 331.032, 276.005 335.491 M 74.639 336.498 C 73.646 339.085, 73.871 340, 75.500 340 C 77.151 340, 77.438 338.239, 76.124 336.166 C 75.449 335.102, 75.149 335.169, 74.639 336.498 M 395.682 335.652 C 394.412 336.922, 394.991 340, 396.500 340 C 397.325 340, 397.993 339.438, 397.985 338.750 C 397.962 336.888, 396.463 334.871, 395.682 335.652 M 0.079 356.382 C -0.016 358.636, 6.445 365.002, 8.821 364.996 C 9.920 364.994, 9.464 364.353, 7.500 363.139 C 4.209 361.107, 1.565 358.327, 0.709 356 C 0.296 354.876, 0.138 354.971, 0.079 356.382 M 432.872 359.662 C 432.118 360.576, 430.150 362.150, 428.500 363.158 C 426.850 364.167, 426.069 364.994, 426.765 364.996 C 428.021 365, 436.073 358.079, 434.872 358.027 C 434.527 358.012, 433.627 358.748, 432.872 359.662" stroke="none" fill="#ede5e0" fill-rule="evenodd"/><path d="M 7.241 1.995 C 5.448 3.088, 3.085 5.448, 1.990 7.241 C 0.018 10.467, 0 12.266, 0.249 183.670 L 0.500 356.839 3 359.515 C 8.498 365.399, -7.123 365, 218 365 C 441.801 365, 427.817 365.336, 432.500 359.845 C 433.600 358.555, 435.063 356.494, 435.750 355.264 C 436.737 353.499, 437 316.732, 437 180.847 C 437 86.148, 436.718 8.949, 436.373 9.293 C 436.029 9.638, 434.782 8.475, 433.603 6.710 C 432.425 4.944, 429.894 2.713, 427.980 1.752 C 424.700 0.104, 412.582 0.003, 217.500 0.005 C 12.709 0.007, 10.465 0.029, 7.241 1.995 M 0.489 182.500 C 0.489 277.650, 0.606 316.427, 0.750 268.671 C 0.894 220.915, 0.894 143.065, 0.750 95.671 C 0.606 48.277, 0.489 87.350, 0.489 182.500 M 245.500 24.008 C 240.550 25.659, 234.700 27.519, 232.500 28.140 C 223.606 30.653, 221.413 31.310, 219.500 32.037 C 218.400 32.455, 214.125 33.783, 210 34.987 C 198.439 38.362, 196.930 38.818, 190.500 40.882 C 184.546 42.793, 178.426 44.655, 164 48.944 C 159.875 50.171, 154.025 51.975, 151 52.953 C 147.975 53.932, 143.475 55.303, 141 56 C 138.525 56.697, 134.025 58.064, 131 59.038 C 124.378 61.168, 112.996 64.602, 107.500 66.126 C 105.300 66.737, 102.938 67.394, 102.250 67.587 C 99.753 68.287, 101.087 69.927, 104.750 70.660 C 111.774 72.065, 116.465 71.480, 125 68.134 C 129.675 66.301, 135.750 63.991, 138.500 63 C 144.933 60.682, 158.953 55.406, 166 52.651 C 172.058 50.282, 175.602 50.206, 197 51.991 C 208.886 52.983, 221.982 53.997, 267.500 57.453 C 278.500 58.288, 289.750 59.156, 292.500 59.381 L 297.500 59.791 313.791 43.646 L 330.081 27.500 326.791 26.751 C 324.981 26.340, 316.525 25.555, 308 25.008 C 288.273 23.742, 268.198 22.287, 260.500 21.567 C 255.524 21.102, 252.963 21.518, 245.500 24.008 M 210 26.094 C 207.525 26.578, 202.575 27.447, 199 28.025 C 195.425 28.603, 189.912 29.508, 186.750 30.038 C 183.588 30.567, 178.300 31.450, 175 32 C 171.700 32.550, 166.412 33.433, 163.250 33.962 C 160.088 34.492, 154.350 35.417, 150.500 36.019 C 138.734 37.859, 135.734 39.091, 134.846 42.450 C 134.417 44.072, 134.279 45.612, 134.538 45.872 C 134.798 46.131, 151.546 42.172, 171.755 37.072 C 191.965 31.972, 209.963 27.571, 211.750 27.291 C 213.537 27.010, 215 26.380, 215 25.891 C 215 25.401, 214.887 25.048, 214.750 25.107 C 214.613 25.166, 212.475 25.610, 210 26.094 M 324.388 40.176 C 320.099 45.854, 316.007 51.095, 315.295 51.821 C 314.583 52.548, 314 53.453, 314 53.832 C 314 54.210, 312.975 55.641, 311.722 57.010 C 310.468 58.380, 308.377 61.012, 307.075 62.861 C 304.745 66.167, 304.692 66.765, 303.837 99.861 C 303.359 118.362, 302.331 142.944, 301.553 154.486 C 300.774 166.028, 300.288 175.621, 300.470 175.804 C 300.653 175.987, 307.340 156.400, 315.329 132.278 L 329.855 88.420 330.934 67.960 C 331.528 56.707, 332.241 45.813, 332.519 43.750 C 332.796 41.688, 332.681 40, 332.262 40.001 C 331.371 40.001, 322.776 54.415, 317.653 64.500 C 314.895 69.929, 313.861 73.519, 313.044 80.500 C 311.437 94.237, 309.885 97.650, 310.500 86.096 C 310.775 80.924, 311 74.601, 311 72.044 C 311 67.976, 311.972 65.842, 318.790 54.948 C 329.069 38.523, 333.329 30.995, 332.700 30.367 C 332.417 30.084, 328.676 34.498, 324.388 40.176 M 152.500 71.621 C 145.201 74.430, 132.540 80.967, 129.750 83.367 C 124.714 87.699, 125.316 88.087, 140 89.972 C 144.675 90.572, 151.650 91.485, 155.500 92 C 162.198 92.896, 169.804 93.860, 186.750 95.960 C 191.012 96.489, 199 97.410, 204.500 98.008 C 210 98.605, 218.100 99.510, 222.500 100.018 C 226.900 100.527, 236.912 101.483, 244.750 102.143 C 252.588 102.804, 259 103.716, 259 104.172 C 259 104.627, 257.988 105.007, 256.750 105.015 C 255.512 105.024, 253.907 105.406, 253.183 105.866 C 252.354 106.392, 254.167 106.942, 258.080 107.351 C 270.756 108.675, 271.098 108.584, 277.143 102.250 C 284.043 95.020, 292 85.225, 292 83.961 C 292 83.432, 290.174 83, 287.943 83 C 285.711 83, 280.874 82.573, 277.193 82.051 C 273.512 81.530, 265.325 80.605, 259 79.997 C 252.675 79.389, 243.675 78.488, 239 77.995 C 234.325 77.502, 225.325 76.617, 219 76.027 C 203.638 74.595, 188.461 73.119, 177.500 71.990 C 158.867 70.070, 156.615 70.037, 152.500 71.621 M 124.675 99.807 C 122.513 102.196, 119.399 114.242, 117.128 129 C 114.428 146.550, 113.857 152.794, 114.893 153.434 C 116.297 154.302, 134.398 149.407, 146.196 144.969 C 165 137.896, 189.303 123.794, 201 113.170 C 205.172 109.380, 205.322 109.079, 203.060 109.041 C 201.718 109.018, 198.118 108.567, 195.060 108.038 C 192.002 107.508, 185.675 106.595, 181 106.007 C 163.852 103.852, 149.242 101.805, 138 99.983 C 134.975 99.493, 131.088 98.868, 129.362 98.593 C 127.187 98.248, 125.749 98.620, 124.675 99.807 M 281.135 109.132 L 278 113.394 278 134.138 C 278 146.043, 278.402 155.130, 278.942 155.464 C 279.461 155.785, 281.538 150.974, 283.559 144.773 L 287.232 133.500 286.653 120.087 C 286.334 112.709, 285.667 106.267, 285.171 105.771 C 284.635 105.235, 282.997 106.599, 281.135 109.132 M 263.440 116.097 C 262.790 117.148, 251.220 124.968, 246 127.883 C 232.342 135.512, 213.694 143.907, 202.509 147.461 C 185.420 152.892, 172.277 155.993, 158 157.962 C 153.325 158.607, 147.062 159.555, 144.083 160.068 C 141.104 160.580, 136.829 161.014, 134.583 161.030 C 130.942 161.058, 130.716 161.192, 132.500 162.278 C 135.333 164.001, 155.517 163.615, 166 161.636 C 175.649 159.815, 189.799 156.640, 195 155.129 C 196.925 154.570, 200.075 153.675, 202 153.139 C 209.179 151.141, 218.789 148.045, 228.250 144.683 C 233.613 142.776, 238 141.329, 238 141.467 C 238 141.604, 235.589 143.318, 232.642 145.274 C 218.112 154.921, 193.366 164.842, 177.250 167.480 C 174.912 167.863, 173 168.586, 173 169.088 C 173 169.590, 173.166 170, 173.369 170 C 173.572 170, 177.509 170.625, 182.119 171.390 C 190.291 172.745, 199.717 173.978, 217 175.953 C 229.511 177.382, 260.804 179.223, 266 178.836 L 270.500 178.500 271.144 169.500 C 272.012 157.371, 272.153 125.397, 271.364 119.640 C 270.753 115.184, 270.597 115, 267.423 115 C 265.605 115, 263.813 115.494, 263.440 116.097 M 335.118 123.681 C 334.525 126.331, 332.680 134.125, 331.017 141 C 328.038 153.322, 318.181 195.374, 317.248 199.746 C 316.920 201.280, 317.518 202.616, 319.134 203.963 C 321.637 206.048, 324 206.601, 324 205.103 C 324 203.450, 333.886 138.717, 336.133 125.653 C 337.364 118.498, 336.606 117.026, 335.118 123.681 M 327.707 127.750 C 327.481 128.162, 326.143 132.100, 324.735 136.500 C 316.640 161.784, 307.445 190.747, 302.509 206.500 C 299.408 216.400, 296.689 225.063, 296.467 225.750 C 296.244 226.438, 296.499 227, 297.031 227 C 297.564 227, 298.015 226.662, 298.033 226.250 C 298.052 225.838, 299.964 223.404, 302.283 220.841 L 306.500 216.183 314.844 182.341 C 319.433 163.729, 323.579 147.150, 324.056 145.500 C 324.533 143.850, 325.778 139.012, 326.822 134.750 C 328.561 127.651, 328.800 125.755, 327.707 127.750 M 115.001 170.250 C 115.014 172.579, 118.300 187.895, 119.668 192 C 121.233 196.698, 122.073 197.769, 125.428 199.342 C 127.589 200.355, 130.876 201.430, 132.732 201.731 C 136.029 202.266, 136.092 202.211, 135.406 199.390 C 134.173 194.320, 130.138 185.967, 126.846 181.667 C 121.119 174.188, 114.991 168.281, 115.001 170.250 M 151 173.486 C 157.317 175.432, 169.655 177.689, 197 181.899 C 208.057 183.601, 217.218 184.161, 216.558 183.094 C 216.225 182.556, 213.826 181.848, 211.227 181.521 C 197.888 179.844, 189.970 178.775, 185 177.981 C 181.975 177.498, 175.900 176.596, 171.500 175.978 C 167.100 175.359, 161.475 174.463, 159 173.987 C 156.525 173.510, 152.700 172.891, 150.500 172.610 L 146.500 172.100 151 173.486 M 287.051 178.157 C 285.995 179.894, 283.196 186.981, 280.832 193.907 C 276.736 205.903, 276.532 207.055, 276.516 218.198 C 276.505 226.121, 276.896 230.292, 277.726 231.124 C 282.435 235.840, 289.636 212.032, 290.694 188.250 C 291.328 173.994, 290.678 172.193, 287.051 178.157 M 147.204 177.111 C 147.635 178.406, 152.902 179.907, 164 181.897 C 167.025 182.440, 171.975 183.327, 175 183.869 C 178.025 184.411, 184.325 185.381, 189 186.024 C 193.675 186.667, 199.660 187.600, 202.299 188.097 C 208.337 189.233, 218 189.272, 218 188.161 C 218 187.700, 214.063 186.782, 209.250 186.123 C 192.179 183.784, 177.233 181.373, 165 178.985 C 148.930 175.848, 146.705 175.614, 147.204 177.111 M 147 181.922 C 147 183.050, 151.387 184.418, 160 185.976 C 163.575 186.622, 168.525 187.540, 171 188.016 C 173.475 188.491, 178.650 189.403, 182.500 190.042 C 186.350 190.682, 191.607 191.597, 194.183 192.077 C 202.145 193.561, 218.380 194.425, 217.703 193.328 C 217.152 192.437, 208.799 190.885, 188.500 187.903 C 176.003 186.067, 166.185 184.303, 155.807 182.029 C 149.993 180.754, 147 180.718, 147 181.922 M 146.668 187.068 C 147.908 188.308, 169.033 192.630, 190.500 196.035 C 194.350 196.646, 199.938 197.563, 202.917 198.073 C 210.065 199.296, 219 199.256, 219 198 C 219 197.450, 217.624 197, 215.943 197 C 214.261 197, 210.999 196.588, 208.693 196.085 C 206.387 195.582, 200.675 194.654, 196 194.024 C 191.325 193.393, 185.475 192.489, 183 192.014 C 180.525 191.540, 175.800 190.669, 172.500 190.080 C 169.200 189.491, 163.031 188.332, 158.792 187.504 C 149.500 185.691, 145.134 185.534, 146.668 187.068 M 263 188.935 C 253.361 191.878, 243.976 199.809, 239.850 208.500 C 235.408 217.857, 235.695 218.667, 243.750 219.472 C 254.983 220.595, 256.779 219.147, 261.788 204.920 C 264.438 197.393, 266.732 187.858, 265.838 188.086 C 265.652 188.133, 264.375 188.515, 263 188.935 M 146 190.981 C 146 191.520, 147.238 192.236, 148.750 192.571 C 150.262 192.906, 152.850 193.551, 154.500 194.004 C 156.150 194.458, 160.650 195.341, 164.500 195.967 C 168.350 196.593, 173.300 197.502, 175.500 197.987 C 177.700 198.473, 183.100 199.387, 187.500 200.018 C 191.900 200.650, 197.750 201.551, 200.500 202.020 C 210.095 203.657, 219 204.197, 219 203.141 C 219 202.581, 216.863 201.843, 214.250 201.502 C 207.491 200.619, 180.361 196.073, 163.250 192.956 C 157.034 191.824, 146.605 190.014, 146.250 190.006 C 146.113 190.003, 146 190.441, 146 190.981 M 146 196 C 146 196.550, 146.358 197, 146.795 197 C 147.233 197, 152.070 197.906, 157.545 199.014 C 163.020 200.121, 170.200 201.505, 173.500 202.089 C 176.800 202.673, 181.525 203.530, 184 203.994 C 186.475 204.457, 192.550 205.372, 197.500 206.027 C 202.450 206.682, 209.187 207.610, 212.470 208.089 C 215.969 208.599, 218.813 208.587, 219.340 208.060 C 220.467 206.933, 213.844 205.013, 208.799 205.006 C 206.764 205.003, 202.939 204.586, 200.299 204.080 C 195.802 203.219, 191.275 202.420, 177.250 200.014 C 174.088 199.471, 167.020 198.121, 161.545 197.014 C 150.531 194.786, 146 194.490, 146 196 M 146 199.933 C 146 201.261, 151.508 202.586, 171.250 206.004 C 174.412 206.552, 179.588 207.449, 182.750 207.998 C 193.589 209.879, 215.846 213, 218.423 213 C 219.840 213, 221 212.615, 221 212.145 C 221 211.675, 216.838 210.742, 211.750 210.073 C 206.662 209.403, 200.475 208.452, 198 207.960 C 195.525 207.468, 186.525 205.917, 178 204.513 C 169.475 203.110, 159.350 201.295, 155.500 200.481 C 147.316 198.749, 146 198.673, 146 199.933 M 118.503 205.112 C 120.679 212.273, 123.333 216.892, 125.836 217.877 C 129.974 219.505, 154.568 224.176, 179.500 228.069 C 186.650 229.185, 194.975 230.491, 198 230.970 C 201.025 231.450, 208.675 232.570, 215 233.459 C 221.325 234.349, 229.237 235.509, 232.582 236.038 C 243.114 237.704, 254.049 237.267, 257.710 235.035 C 261.412 232.778, 265.715 226.641, 266.149 223 C 266.540 219.717, 265.569 219.677, 259 222.706 C 253.517 225.234, 253.459 225.238, 240.500 224.078 C 233.350 223.438, 224.800 222.500, 221.500 221.994 C 218.200 221.488, 211.450 220.580, 206.500 219.976 C 201.550 219.373, 195.250 218.493, 192.500 218.023 C 189.750 217.552, 183.900 216.637, 179.500 215.991 C 175.100 215.344, 167 213.951, 161.500 212.896 C 156 211.841, 148.800 210.479, 145.500 209.869 C 142.200 209.259, 135.675 207.643, 131 206.278 C 117.416 202.313, 117.660 202.336, 118.503 205.112 M 146 203.941 C 146 204.459, 146.457 205.165, 147.016 205.510 C 148.934 206.695, 181.830 212.157, 207 215.470 C 220.409 217.235, 221 217.265, 221 216.178 C 221 215.726, 216.613 214.793, 211.250 214.104 C 205.887 213.416, 199.250 212.460, 196.500 211.980 C 193.750 211.499, 188.125 210.582, 184 209.942 C 179.875 209.301, 169.942 207.477, 161.928 205.888 C 145.375 202.607, 146 202.684, 146 203.941 M 21.436 273.400 C 20.117 278.655, 20.982 279.462, 28.509 280 L 35.500 280.500 36 299 L 36.500 317.500 41.728 317.801 L 46.955 318.103 47.228 299.301 L 47.500 280.500 54.805 280.205 L 62.111 279.910 61.805 275.705 L 61.500 271.500 41.774 271.229 L 22.049 270.958 21.436 273.400 M 69.516 274.177 C 69.185 276.005, 69.046 286.500, 69.207 297.500 L 69.500 317.500 75 317.500 L 80.500 317.500 80.794 310.250 L 81.088 303 85.294 303.005 C 89.470 303.010, 89.531 303.063, 93.882 310.505 L 98.265 318 103.632 318 C 109.520 318, 110.038 317.283, 107.131 313.154 C 106.102 311.694, 104.272 308.547, 103.064 306.159 C 100.953 301.988, 100.938 301.764, 102.683 300.441 C 103.682 299.683, 104.786 299.049, 105.136 299.032 C 106.684 298.954, 109 291.742, 109 287 C 109 280.124, 106.741 275.600, 102.173 273.327 C 99.256 271.876, 95.579 271.434, 84.309 271.177 L 70.118 270.854 69.516 274.177 M 134.194 273.750 C 132.396 278.462, 122.928 303.184, 120.383 309.812 C 119.050 313.284, 118.220 316.546, 118.538 317.062 C 118.857 317.578, 121.269 318, 123.899 318 C 128.590 318, 128.705 317.925, 130 314 L 131.320 310 140.910 310.010 L 150.500 310.020 152.176 314.010 C 153.824 317.934, 153.937 318, 159.034 318 C 164.184 318, 164.213 317.982, 163.548 315.250 C 163.179 313.738, 161.132 308, 158.999 302.500 C 156.865 297, 153.258 287.663, 150.984 281.750 L 146.848 271 141.045 271 C 135.636 271, 135.172 271.186, 134.194 273.750 M 172.448 272.274 C 172.180 272.974, 172.081 283.437, 172.230 295.524 L 172.500 317.500 177.750 317.802 L 183 318.105 183 303.611 C 183 295.640, 183.402 288.870, 183.892 288.567 C 184.383 288.263, 188.804 294.649, 193.717 302.758 L 202.649 317.500 209.843 317.794 L 217.037 318.088 216.769 294.794 L 216.500 271.500 211.500 271.500 L 206.500 271.500 206.223 286.250 C 206.071 294.363, 205.571 301, 205.113 301 C 204.238 301, 199.551 293.941, 191.503 280.500 C 188.868 276.100, 186.215 272.169, 185.606 271.765 C 183.657 270.471, 172.982 270.883, 172.448 272.274 M 231.632 273.011 C 229.504 274.073, 227.163 275.742, 226.428 276.721 C 224.252 279.621, 223.644 286.474, 225.142 291.206 C 227.004 297.083, 230.863 298.888, 241.703 298.952 C 251.771 299.011, 255 300.262, 255 304.104 C 255 307.763, 251.715 310, 246.343 310 C 240.578 310, 237.145 308.511, 236.007 305.518 C 235.159 303.288, 234.474 303, 230.025 303 L 225 303 225 306.923 C 225 314.489, 232.755 319, 245.761 319 C 253.587 319, 261.388 316.594, 263.894 313.407 C 268.522 307.525, 267.394 296.841, 261.719 292.800 C 259.044 290.895, 257.179 290.546, 249.041 290.429 C 237.296 290.260, 236 289.772, 236 285.515 C 236 280.887, 237.786 279.851, 245.163 280.200 C 251.213 280.486, 251.568 280.646, 253 283.728 C 254.409 286.761, 254.819 286.958, 259.750 286.978 C 264.670 286.999, 265 286.845, 265 284.534 C 265 279.938, 261.861 275.111, 257.499 272.999 C 251.751 270.217, 237.216 270.223, 231.632 273.011 M 286.160 272.361 C 275.899 276.077, 271.045 290.295, 275.007 305.033 C 278.066 316.411, 293.314 322.066, 308.654 317.510 C 314.724 315.708, 317.498 313.445, 319.493 308.671 C 321.725 303.329, 321.504 303, 315.688 303 C 310.976 303, 310.132 303.330, 308.214 305.925 C 306.452 308.308, 305.049 308.975, 300.640 309.526 C 290.401 310.805, 284.998 305.734, 285.002 294.849 C 285.003 288.559, 287.434 283.060, 291 281.279 C 294 279.780, 301.866 279.618, 305.453 280.982 C 306.874 281.522, 308.467 283.097, 308.993 284.482 C 309.857 286.753, 310.492 287, 315.475 287 C 321.459 287, 321.721 286.661, 319.621 281.636 C 318.080 277.946, 314.187 274.523, 309.128 272.409 C 305.004 270.686, 290.869 270.657, 286.160 272.361 M 345.598 273.250 C 343.964 275.791, 329 315.109, 329 316.864 C 329 317.563, 330.956 318, 334.080 318 C 339.079 318, 339.186 317.936, 340.732 314 L 342.303 310 351.644 310 L 360.984 310 362.745 313.750 C 364.414 317.306, 364.777 317.516, 369.753 317.802 C 372.639 317.969, 375.002 317.744, 375.005 317.302 C 375.008 316.861, 373.658 313.012, 372.005 308.750 C 369.296 301.764, 367.564 297.189, 360.737 279 C 357.893 271.422, 357.427 271, 351.901 271 C 347.962 271, 346.773 271.424, 345.598 273.250 M 374.424 274.554 C 374.053 276.531, 374.143 278.542, 374.625 279.022 C 375.106 279.502, 378.425 280.031, 382 280.197 L 388.500 280.500 388.772 299.250 L 389.044 318 394.500 318 L 399.956 318 400.228 299.250 L 400.500 280.500 407.805 280.205 L 415.111 279.910 414.805 275.705 L 414.500 271.500 394.799 271.229 L 375.098 270.958 374.424 274.554 M 81 286.958 L 81 293 88.525 293 C 95.813 293, 96.082 292.914, 97.096 290.250 C 97.738 288.565, 97.812 286.338, 97.287 284.500 C 96.441 281.536, 96.338 281.496, 88.716 281.208 L 81 280.916 81 286.958 M 138.255 292.946 C 137.139 296.216, 136.474 299.141, 136.779 299.446 C 137.512 300.179, 144.506 300.161, 145.242 299.424 C 145.992 298.675, 142.053 287, 141.051 287 C 140.630 287, 139.372 289.676, 138.255 292.946 M 349.134 292.853 C 347.960 296.072, 347 298.997, 347 299.353 C 347 300.151, 355.447 300.220, 356.239 299.428 C 356.911 298.756, 352.791 287.002, 351.884 287.001 C 351.545 287, 350.308 289.634, 349.134 292.853 M 315 337.441 C 315 341.147, 315.435 344, 316 344 C 316.554 344, 317 341.353, 317 338.059 C 317 334.791, 316.550 331.840, 316 331.500 C 315.372 331.112, 315 333.323, 315 337.441 M 36.250 332.689 C 37.645 333.054, 38 334.246, 38 338.573 C 38 341.558, 38.450 344, 39 344 C 39.550 344, 40 341.558, 40 338.573 C 40 334.246, 40.355 333.054, 41.750 332.689 C 42.712 332.438, 41.475 332.232, 39 332.232 C 36.525 332.232, 35.288 332.438, 36.250 332.689 M 51.629 335.917 C 51.285 338.071, 51.382 340.858, 51.845 342.109 C 52.682 344.372, 52.690 344.370, 53.362 341.692 C 54.219 338.280, 56.292 338.257, 58.750 341.631 L 60.667 344.263 60.697 339.381 C 60.734 333.434, 59.726 332, 55.505 332 C 52.499 332, 52.209 332.293, 51.629 335.917 M 73.321 333.750 C 72.982 334.712, 72.096 337.017, 71.352 338.872 C 69.509 343.468, 69.655 344.623, 71.829 342.655 C 74.211 340.499, 77.644 340.542, 78.875 342.742 C 81.018 346.571, 81.121 342.726, 79.015 337.536 C 76.763 331.990, 74.476 330.469, 73.321 333.750 M 89 337.441 C 89 340.434, 89.450 343.160, 90 343.500 C 90.604 343.873, 91 342.510, 91 340.059 C 91 334.929, 92.260 334.911, 95.120 340 C 98.453 345.929, 100 345.242, 100 337.833 C 100 331.663, 98.908 330.183, 98.617 335.959 C 98.402 340.237, 96.856 340.160, 94.502 335.753 C 93.361 333.617, 91.748 332.004, 90.750 332.003 C 89.297 332, 89 332.925, 89 337.441 M 109.079 333.405 C 107.448 335.370, 108.467 336.879, 112.591 338.602 C 114.881 339.559, 115.755 340.474, 115.362 341.500 C 114.662 343.324, 111.882 343.455, 110.075 341.750 C 109.006 340.741, 108.837 340.789, 109.202 342 C 109.835 344.101, 115.357 344.479, 116.973 342.532 C 118.060 341.223, 117.978 340.634, 116.483 338.981 C 115.497 337.892, 113.908 337, 112.952 337 C 110.608 337, 109.584 334.097, 111.649 333.304 C 112.538 332.963, 114.154 333.240, 115.241 333.919 C 116.844 334.919, 117.135 334.902, 116.782 333.826 C 116.150 331.903, 110.578 331.598, 109.079 333.405 M 125.714 332.620 C 124.589 333.745, 124.882 342.809, 126.067 343.542 C 126.655 343.905, 127.381 343.257, 127.684 342.101 C 128.023 340.802, 129.048 339.994, 130.367 339.985 C 133.785 339.960, 135.187 338.517, 134.830 335.391 C 134.534 332.795, 134.089 332.470, 130.464 332.203 C 128.244 332.040, 126.106 332.227, 125.714 332.620 M 144.655 333.829 C 141.089 337.770, 143.947 344.010, 149.307 343.985 C 152.968 343.967, 154.240 343.288, 155.736 340.553 C 156.901 338.422, 155.762 334.105, 153.687 332.786 C 151.479 331.382, 146.332 331.976, 144.655 333.829 M 164 338 C 164 341.333, 164.444 344, 165 344 C 165.550 344, 166 343.127, 166 342.059 C 166 340.991, 166.441 339.846, 166.979 339.513 C 168.393 338.639, 172 340.810, 172 342.535 C 172 343.341, 172.380 344, 172.846 344 C 173.858 344, 173.666 334.886, 172.617 333.190 C 172.213 332.535, 170.109 332, 167.941 332 L 164 332 164 338 M 183.750 333.031 C 185.665 333.801, 186 334.684, 186 338.968 C 186 341.735, 186.450 344, 187 344 C 187.550 344, 188 341.558, 188 338.573 C 188 334.246, 188.355 333.054, 189.750 332.689 C 190.713 332.438, 189.250 332.208, 186.500 332.179 C 182.560 332.138, 181.977 332.318, 183.750 333.031 M 199 338 L 199 344 203.750 343.868 C 208.208 343.745, 208.286 343.699, 205.011 343.118 C 200.149 342.257, 199.517 339.048, 204.177 338.882 L 207.500 338.763 204.500 338.125 C 202.433 337.686, 201.403 336.809, 201.189 335.308 C 200.923 333.449, 201.438 333.070, 204.689 332.732 C 208.256 332.362, 208.196 332.325, 203.750 332.168 L 199 332 199 338 M 228.032 332.750 C 228.049 333.163, 228.724 334.374, 229.532 335.441 C 230.339 336.509, 231 338.871, 231 340.691 C 231 342.511, 231.450 344, 232 344 C 232.550 344, 233.002 342.988, 233.004 341.750 C 233.006 340.512, 233.930 337.987, 235.058 336.137 C 237.473 332.175, 236.680 330.447, 234.048 333.937 L 232.232 336.344 230.875 334.172 C 229.549 332.048, 227.969 331.258, 228.032 332.750 M 256 338 L 256 344 260.750 343.832 C 265.102 343.678, 265.186 343.631, 261.750 343.272 L 258 342.879 258 337.440 C 258 334.448, 257.550 332, 257 332 C 256.444 332, 256 334.667, 256 338 M 274.655 333.829 C 270.925 337.950, 273.865 344.015, 279.579 343.985 C 283.076 343.966, 284.314 343.233, 285.885 340.250 C 287.119 337.908, 286.048 334.400, 283.600 332.765 C 281.516 331.373, 276.318 331.991, 274.655 333.829 M 296.524 333.358 C 295.367 334.205, 294.667 335.955, 294.667 338 C 294.667 342.186, 297.092 344, 302.691 344 C 306.812 344, 307 343.869, 307 341 C 307 338.254, 306.725 338.012, 303.750 338.136 C 301.400 338.235, 301.123 338.392, 302.750 338.706 C 305.277 339.192, 305.563 340.037, 303.800 341.800 C 299.990 345.610, 294.972 340.833, 297.048 335.373 C 297.933 333.047, 298.448 332.811, 301.546 333.314 C 303.619 333.650, 304.808 333.498, 304.463 332.941 C 303.599 331.542, 298.652 331.803, 296.524 333.358 M 325.667 332.667 C 323.862 334.471, 325.264 336.888, 328.975 338.374 C 331.801 339.504, 332.782 340.403, 332.368 341.482 C 331.674 343.291, 328.873 343.473, 327.217 341.817 C 326.566 341.166, 325.701 340.965, 325.296 341.371 C 324.088 342.578, 327.274 344.041, 330.500 343.761 C 332.760 343.564, 333.579 342.940, 333.822 341.229 C 334.078 339.430, 333.387 338.642, 330.503 337.437 C 326.402 335.723, 326.327 333.400, 330.382 333.691 C 331.847 333.797, 332.784 333.459, 332.464 332.941 C 331.800 331.867, 326.673 331.660, 325.667 332.667 M 344.250 332.689 C 345.645 333.054, 346 334.246, 346 338.573 C 346 341.558, 346.450 344, 347 344 C 347.550 344, 348 341.558, 348 338.573 C 348 334.246, 348.355 333.054, 349.750 332.689 C 350.712 332.438, 349.475 332.232, 347 332.232 C 344.525 332.232, 343.288 332.438, 344.250 332.689 M 360 338 C 360 341.333, 360.444 344, 361 344 C 361.556 344, 362 341.333, 362 338 C 362 334.667, 361.556 332, 361 332 C 360.444 332, 360 334.667, 360 338 M 371.571 333.571 C 370.707 334.436, 370 336.429, 370 338 C 370 339.571, 370.707 341.564, 371.571 342.429 C 373.567 344.424, 379.367 344.468, 381 342.500 C 381.785 341.554, 381.852 341, 381.181 341 C 380.597 341, 379.840 341.450, 379.500 342 C 378.302 343.939, 374.076 343.045, 372.408 340.500 C 370.886 338.176, 370.891 337.815, 372.483 335.385 C 373.938 333.165, 374.714 332.854, 377.621 333.326 C 379.644 333.654, 380.807 333.497, 380.463 332.941 C 379.524 331.420, 373.280 331.863, 371.571 333.571 M 394.321 333.750 C 393.982 334.712, 393.096 337.017, 392.352 338.872 C 390.509 343.468, 390.655 344.623, 392.829 342.655 C 395.116 340.585, 398.362 340.526, 400.020 342.524 C 402.177 345.123, 402.132 343.522, 399.883 337.645 C 397.724 332.003, 395.488 330.437, 394.321 333.750 M 54 335.500 C 54 338.065, 55.430 338.647, 57.896 337.086 C 59.821 335.867, 58.512 333, 56.031 333 C 54.531 333, 54 333.654, 54 335.500 M 128 335.441 C 128 336.784, 128.409 338.135, 128.910 338.444 C 130.652 339.521, 133 337.770, 133 335.393 C 133 333.507, 132.470 333, 130.500 333 C 128.516 333, 128 333.504, 128 335.441 M 145.965 335.565 C 144.483 338.334, 145.216 340.472, 148.317 342.428 C 150.673 343.915, 153.416 342.002, 153.822 338.589 C 154.481 333.051, 148.535 330.763, 145.965 335.565 M 166.336 334.567 C 166.005 335.429, 166.214 336.614, 166.800 337.200 C 168.355 338.755, 171 337.390, 171 335.031 C 171 332.565, 167.247 332.192, 166.336 334.567 M 276.005 335.491 C 274.196 338.870, 275.997 343, 279.279 343 C 282.318 343, 284 341.219, 284 338 C 284 332.791, 278.391 331.032, 276.005 335.491 M 74.639 336.498 C 73.646 339.085, 73.871 340, 75.500 340 C 77.151 340, 77.438 338.239, 76.124 336.166 C 75.449 335.102, 75.149 335.169, 74.639 336.498 M 395.682 335.652 C 394.412 336.922, 394.991 340, 396.500 340 C 397.325 340, 397.993 339.438, 397.985 338.750 C 397.962 336.888, 396.463 334.871, 395.682 335.652" stroke="none" fill="#fa5d07" fill-rule="evenodd"/></svg>