<svg xmlns="http://www.w3.org/2000/svg" width="273" height="242" viewBox="0 0 273 242" version="1.1"><path d="M 11.200 1.672 C 6.834 3.824, 1.168 10.556, 0.476 14.413 C 0.172 16.111, 0.053 65.200, 0.211 123.500 L 0.500 229.500 2.820 232.752 C 4.096 234.541, 6.760 237.241, 8.742 238.752 L 12.344 241.500 133.922 241.788 C 200.790 241.946, 256.889 241.827, 258.587 241.523 C 262.657 240.795, 268.943 235.310, 271.750 230.037 L 274 225.811 274 119.346 C 274 48.625, 273.664 13.089, 273 13.500 C 272.450 13.840, 272 13.497, 272 12.739 C 272 11.981, 270.440 9.537, 268.533 7.310 C 261.758 -0.606, 272.695 -0.003, 136.349 0.023 C 25.887 0.043, 14.192 0.198, 11.200 1.672 M 160.500 16.006 C 155.550 17.536, 120.900 28.102, 83.500 39.487 C 46.100 50.871, 15.129 60.537, 14.676 60.967 C 14.223 61.397, 17.473 62.278, 21.899 62.925 L 29.947 64.102 59.724 53.127 L 89.500 42.152 133 45.547 C 156.925 47.415, 184.825 49.594, 195 50.390 L 213.500 51.837 229.494 36.168 C 238.291 27.551, 245.636 19.938, 245.817 19.250 C 245.999 18.563, 245.326 17.992, 244.323 17.983 C 243.320 17.973, 227.200 16.854, 208.500 15.496 C 189.800 14.138, 173.375 13.072, 172 13.126 C 170.625 13.180, 165.450 14.476, 160.500 16.006 M 0.482 121 C 0.482 180.125, 0.603 204.313, 0.750 174.750 C 0.897 145.187, 0.897 96.812, 0.750 67.250 C 0.603 37.687, 0.482 61.875, 0.482 121 M 103.500 21.450 C 83.150 24.922, 63.260 28.303, 59.301 28.963 C 52.340 30.124, 52.063 30.279, 50.951 33.649 C 50.318 35.566, 50.061 37.394, 50.379 37.713 C 50.899 38.233, 142.915 16.251, 143.917 15.368 C 144.882 14.516, 138.626 15.458, 103.500 21.450 M 234.374 39.679 L 220.248 58.500 219.619 92 C 219.273 110.425, 218.558 131.800, 218.029 139.500 C 217.500 147.200, 216.803 157.325, 216.479 162 C 215.892 170.487, 215.914 170.431, 230.866 125.690 L 245.841 80.881 246.926 62.190 C 247.522 51.911, 248.270 40.575, 248.588 37 C 249.335 28.589, 248.694 29.257, 238.524 47.500 L 230.719 61.500 228.933 74.843 C 227.951 82.182, 226.889 88.444, 226.574 88.760 C 225.788 89.545, 225.963 74.078, 226.837 65.500 C 227.518 58.812, 228.031 57.729, 238.338 41.194 C 244.271 31.675, 248.984 23.206, 248.812 22.372 C 248.638 21.528, 242.251 29.184, 234.374 39.679 M 64.400 64.871 C 53.486 69.178, 40.405 77.738, 42.118 79.452 C 43.751 81.084, 138.797 92.577, 167.328 94.592 C 177.439 95.305, 178.306 96.310, 170 97.688 L 165.500 98.435 171 99.118 C 174.025 99.495, 179.019 99.847, 182.098 99.901 C 187.661 99.999, 187.729 99.964, 193.115 94.250 C 201.028 85.856, 208 77.434, 208 76.271 C 208 75, 207.074 74.885, 158 70.016 C 135.725 67.806, 108.725 65.097, 98 63.995 C 73.477 61.475, 72.972 61.488, 64.400 64.871 M 39.384 93.623 C 37.050 99.210, 34.290 111.376, 32.608 123.500 C 30.302 140.113, 29.710 146, 30.346 146 C 30.663 146, 34.652 145.127, 39.211 144.061 C 59.119 139.402, 82.983 129.077, 100.405 117.584 C 109.999 111.255, 122.161 101.827, 121.536 101.203 C 121.338 101.005, 109.331 99.288, 94.855 97.387 C 80.378 95.486, 63.020 93.046, 56.283 91.965 C 49.546 90.884, 43.328 90, 42.466 90 C 41.603 90, 40.217 91.630, 39.384 93.623 M 197.170 100.413 L 194 104.827 194 127.613 C 194 140.700, 194.373 149.996, 194.875 149.450 C 195.357 148.927, 197.382 143.549, 199.375 137.498 C 202.470 128.105, 203 125.166, 203 117.395 C 203 106.746, 202.009 96, 201.027 96 C 200.649 96, 198.913 97.986, 197.170 100.413 M 246.052 136.256 C 242.041 153.440, 237.377 173.433, 235.687 180.684 L 232.615 193.868 235.057 195.901 C 237.519 197.949, 240 198.631, 240 197.258 C 240 196.851, 243.179 176.105, 247.064 151.156 C 250.950 126.208, 253.953 105.619, 253.737 105.404 C 253.522 105.188, 250.063 119.072, 246.052 136.256 M 171 113.549 C 141.288 133.814, 101.408 147.159, 56.006 152.028 C 50.235 152.648, 45.362 153.305, 45.177 153.490 C 44.992 153.674, 47.465 154.372, 50.671 155.039 C 65.656 158.159, 101.561 151.404, 138.899 138.440 C 155.359 132.725, 155.943 133.214, 142.119 141.142 C 127.545 149.501, 103.432 158.101, 90.194 159.663 C 87.276 160.007, 85.251 160.633, 85.694 161.053 C 86.814 162.115, 119.113 166.591, 139 168.439 C 148.075 169.282, 162.474 170.091, 170.997 170.236 L 186.495 170.500 187.255 163 C 187.673 158.875, 187.899 144.700, 187.757 131.500 L 187.500 107.500 184 107.285 C 181.151 107.110, 178.732 108.275, 171 113.549 M 229.069 164.569 C 219.571 194.580, 211.993 219.326, 212.229 219.562 C 212.465 219.798, 214.938 217.181, 217.725 213.746 L 222.791 207.500 234.946 159.134 C 241.631 132.532, 246.929 110.596, 246.720 110.387 C 246.510 110.177, 238.568 134.559, 229.069 164.569 M 202.600 142.600 C 202.244 143.527, 202.178 144.511, 202.453 144.786 C 202.728 145.061, 203.244 144.527, 203.600 143.600 C 203.956 142.673, 204.022 141.689, 203.747 141.414 C 203.472 141.139, 202.956 141.673, 202.600 142.600 M 31 162.922 C 31 166.089, 34.841 182.684, 36.484 186.617 C 38.009 190.267, 42.166 192.666, 48.841 193.749 C 52.231 194.299, 52.281 194.256, 51.578 191.405 C 49.344 182.358, 41.377 169.554, 34.247 163.554 C 31.150 160.948, 31 160.919, 31 162.922 M 63.420 164.871 C 64.015 165.833, 65.519 166.177, 81.500 168.996 C 100.639 172.373, 125.723 176, 129.937 176 C 138.971 176, 133.048 174.145, 117.250 172.025 C 108.037 170.790, 92.708 168.478, 83.184 166.889 C 64.331 163.744, 62.615 163.568, 63.420 164.871 M 202.603 170.798 C 201.265 173.436, 198.488 180.524, 196.430 186.548 C 193.421 195.357, 192.599 199.403, 192.229 207.228 C 191.657 219.329, 192.411 224, 194.935 224 C 199.271 224, 204.492 206.295, 207.012 183.045 C 208.144 172.600, 207.741 166, 205.972 166 C 205.456 166, 203.940 168.159, 202.603 170.798 M 63.247 169.250 C 63.802 170.929, 74.882 173.241, 102.636 177.473 C 126.550 181.119, 134 181.719, 134 180 C 134 179.450, 133.552 179, 133.004 179 C 129.956 179, 89.329 172.604, 78.946 170.489 C 65.071 167.663, 62.659 167.473, 63.247 169.250 M 62 173.801 C 62 175.229, 62.947 175.473, 82 178.941 C 108.610 183.785, 123.575 186, 129.683 186 C 138.440 186, 134.854 184.496, 121.500 182.567 C 114.900 181.614, 100.500 179.261, 89.500 177.338 C 62.552 172.626, 62 172.555, 62 173.801 M 62 178.886 C 62 180.576, 121.503 190.980, 131.250 190.995 C 139.617 191.007, 134.076 189.271, 118.750 187.079 C 109.813 185.801, 94.400 183.243, 84.500 181.394 C 65.483 177.843, 62 177.455, 62 178.886 M 173.363 182.976 C 170.088 184.613, 165.357 187.917, 162.851 190.318 C 158.063 194.906, 153 204.166, 153 208.337 C 153 210.641, 153.429 210.840, 159.750 211.472 C 167.358 212.233, 171.002 211.258, 173.425 207.813 C 174.754 205.923, 178.612 195.005, 182.457 182.250 C 183.414 179.072, 180.750 179.285, 173.363 182.976 M 62 182.808 C 62 184.471, 68.432 185.916, 98 190.900 C 127.606 195.890, 138.253 196.920, 135.899 194.566 C 135.661 194.327, 130.298 193.434, 123.983 192.581 C 114.412 191.288, 76.881 184.791, 65.250 182.414 C 63.213 181.998, 62 182.145, 62 182.808 M 61.550 187.908 C 63.738 190, 134.353 201.980, 135.825 200.509 C 137.035 199.298, 134.217 198.114, 128.752 197.535 C 120.358 196.647, 95.495 192.599, 79.500 189.516 C 65.849 186.885, 59.925 186.355, 61.550 187.908 M 62.219 192.369 C 65.486 194.851, 135.130 206.203, 136.807 204.527 C 137.820 203.514, 136.403 203.129, 127.485 201.992 C 117.177 200.677, 80.806 194.555, 70.685 192.431 C 66.936 191.644, 63.111 191.014, 62.185 191.032 C 60.622 191.061, 60.624 191.158, 62.219 192.369 M 34.010 195.794 C 34.024 198.227, 38.378 207.249, 40.309 208.846 C 44.663 212.447, 145.557 228.974, 163.300 228.993 C 170.959 229.001, 174.477 227.598, 178.354 222.991 C 180.971 219.881, 183.797 212.463, 182.760 211.426 C 182.451 211.118, 179.919 212.021, 177.133 213.433 C 169.623 217.238, 160.078 216.908, 119.507 211.439 C 85.415 206.843, 51.247 200.178, 38.250 195.589 C 34.324 194.203, 34.001 194.219, 34.010 195.794 M 61.529 195.953 C 60.740 197.230, 65.253 198.329, 86 201.912 C 101.612 204.608, 133.141 208.993, 136.950 208.998 C 137.852 208.999, 138.041 208.655, 137.450 208.086 C 136.927 207.583, 132.225 206.665, 127 206.045 C 114.212 204.528, 89.823 200.519, 74.913 197.482 C 60.696 194.587, 62.263 194.766, 61.529 195.953" stroke="none" fill="#fb5e08" fill-rule="evenodd"/><path d="M 160.500 16.006 C 155.550 17.536, 120.900 28.102, 83.500 39.487 C 46.100 50.871, 15.129 60.537, 14.676 60.967 C 14.223 61.397, 17.473 62.278, 21.899 62.925 L 29.947 64.102 59.724 53.127 L 89.500 42.152 133 45.547 C 156.925 47.415, 184.825 49.594, 195 50.390 L 213.500 51.837 229.494 36.168 C 238.291 27.551, 245.636 19.938, 245.817 19.250 C 245.999 18.563, 245.326 17.992, 244.323 17.983 C 243.320 17.973, 227.200 16.854, 208.500 15.496 C 189.800 14.138, 173.375 13.072, 172 13.126 C 170.625 13.180, 165.450 14.476, 160.500 16.006 M 103.500 21.450 C 83.150 24.922, 63.260 28.303, 59.301 28.963 C 52.340 30.124, 52.063 30.279, 50.951 33.649 C 50.318 35.566, 50.061 37.394, 50.379 37.713 C 50.899 38.233, 142.915 16.251, 143.917 15.368 C 144.882 14.516, 138.626 15.458, 103.500 21.450 M 234.374 39.679 L 220.248 58.500 219.619 92 C 219.273 110.425, 218.558 131.800, 218.029 139.500 C 217.500 147.200, 216.803 157.325, 216.479 162 C 215.892 170.487, 215.914 170.431, 230.866 125.690 L 245.841 80.881 246.926 62.190 C 247.522 51.911, 248.270 40.575, 248.588 37 C 249.335 28.589, 248.694 29.257, 238.524 47.500 L 230.719 61.500 228.933 74.843 C 227.951 82.182, 226.889 88.444, 226.574 88.760 C 225.788 89.545, 225.963 74.078, 226.837 65.500 C 227.518 58.812, 228.031 57.729, 238.338 41.194 C 244.271 31.675, 248.984 23.206, 248.812 22.372 C 248.638 21.528, 242.251 29.184, 234.374 39.679 M 64.400 64.871 C 53.486 69.178, 40.405 77.738, 42.118 79.452 C 43.751 81.084, 138.797 92.577, 167.328 94.592 C 177.439 95.305, 178.306 96.310, 170 97.688 L 165.500 98.435 171 99.118 C 174.025 99.495, 179.019 99.847, 182.098 99.901 C 187.661 99.999, 187.729 99.964, 193.115 94.250 C 201.028 85.856, 208 77.434, 208 76.271 C 208 75, 207.074 74.885, 158 70.016 C 135.725 67.806, 108.725 65.097, 98 63.995 C 73.477 61.475, 72.972 61.488, 64.400 64.871 M 39.384 93.623 C 37.050 99.210, 34.290 111.376, 32.608 123.500 C 30.302 140.113, 29.710 146, 30.346 146 C 30.663 146, 34.652 145.127, 39.211 144.061 C 59.119 139.402, 82.983 129.077, 100.405 117.584 C 109.999 111.255, 122.161 101.827, 121.536 101.203 C 121.338 101.005, 109.331 99.288, 94.855 97.387 C 80.378 95.486, 63.020 93.046, 56.283 91.965 C 49.546 90.884, 43.328 90, 42.466 90 C 41.603 90, 40.217 91.630, 39.384 93.623 M 197.170 100.413 L 194 104.827 194 127.613 C 194 140.700, 194.373 149.996, 194.875 149.450 C 195.357 148.927, 197.382 143.549, 199.375 137.498 C 202.470 128.105, 203 125.166, 203 117.395 C 203 106.746, 202.009 96, 201.027 96 C 200.649 96, 198.913 97.986, 197.170 100.413 M 246.052 136.256 C 242.041 153.440, 237.377 173.433, 235.687 180.684 L 232.615 193.868 235.057 195.901 C 237.519 197.949, 240 198.631, 240 197.258 C 240 196.851, 243.179 176.105, 247.064 151.156 C 250.950 126.208, 253.953 105.619, 253.737 105.404 C 253.522 105.188, 250.063 119.072, 246.052 136.256 M 171 113.549 C 141.288 133.814, 101.408 147.159, 56.006 152.028 C 50.235 152.648, 45.362 153.305, 45.177 153.490 C 44.992 153.674, 47.465 154.372, 50.671 155.039 C 65.656 158.159, 101.561 151.404, 138.899 138.440 C 155.359 132.725, 155.943 133.214, 142.119 141.142 C 127.545 149.501, 103.432 158.101, 90.194 159.663 C 87.276 160.007, 85.251 160.633, 85.694 161.053 C 86.814 162.115, 119.113 166.591, 139 168.439 C 148.075 169.282, 162.474 170.091, 170.997 170.236 L 186.495 170.500 187.255 163 C 187.673 158.875, 187.899 144.700, 187.757 131.500 L 187.500 107.500 184 107.285 C 181.151 107.110, 178.732 108.275, 171 113.549 M 229.069 164.569 C 219.571 194.580, 211.993 219.326, 212.229 219.562 C 212.465 219.798, 214.938 217.181, 217.725 213.746 L 222.791 207.500 234.946 159.134 C 241.631 132.532, 246.929 110.596, 246.720 110.387 C 246.510 110.177, 238.568 134.559, 229.069 164.569 M 202.600 142.600 C 202.244 143.527, 202.178 144.511, 202.453 144.786 C 202.728 145.061, 203.244 144.527, 203.600 143.600 C 203.956 142.673, 204.022 141.689, 203.747 141.414 C 203.472 141.139, 202.956 141.673, 202.600 142.600 M 31 162.922 C 31 166.089, 34.841 182.684, 36.484 186.617 C 38.009 190.267, 42.166 192.666, 48.841 193.749 C 52.231 194.299, 52.281 194.256, 51.578 191.405 C 49.344 182.358, 41.377 169.554, 34.247 163.554 C 31.150 160.948, 31 160.919, 31 162.922 M 63.420 164.871 C 64.015 165.833, 65.519 166.177, 81.500 168.996 C 100.639 172.373, 125.723 176, 129.937 176 C 138.971 176, 133.048 174.145, 117.250 172.025 C 108.037 170.790, 92.708 168.478, 83.184 166.889 C 64.331 163.744, 62.615 163.568, 63.420 164.871 M 202.603 170.798 C 201.265 173.436, 198.488 180.524, 196.430 186.548 C 193.421 195.357, 192.599 199.403, 192.229 207.228 C 191.657 219.329, 192.411 224, 194.935 224 C 199.271 224, 204.492 206.295, 207.012 183.045 C 208.144 172.600, 207.741 166, 205.972 166 C 205.456 166, 203.940 168.159, 202.603 170.798 M 63.247 169.250 C 63.802 170.929, 74.882 173.241, 102.636 177.473 C 126.550 181.119, 134 181.719, 134 180 C 134 179.450, 133.552 179, 133.004 179 C 129.956 179, 89.329 172.604, 78.946 170.489 C 65.071 167.663, 62.659 167.473, 63.247 169.250 M 62 173.801 C 62 175.229, 62.947 175.473, 82 178.941 C 108.610 183.785, 123.575 186, 129.683 186 C 138.440 186, 134.854 184.496, 121.500 182.567 C 114.900 181.614, 100.500 179.261, 89.500 177.338 C 62.552 172.626, 62 172.555, 62 173.801 M 62 178.886 C 62 180.576, 121.503 190.980, 131.250 190.995 C 139.617 191.007, 134.076 189.271, 118.750 187.079 C 109.813 185.801, 94.400 183.243, 84.500 181.394 C 65.483 177.843, 62 177.455, 62 178.886 M 173.363 182.976 C 170.088 184.613, 165.357 187.917, 162.851 190.318 C 158.063 194.906, 153 204.166, 153 208.337 C 153 210.641, 153.429 210.840, 159.750 211.472 C 167.358 212.233, 171.002 211.258, 173.425 207.813 C 174.754 205.923, 178.612 195.005, 182.457 182.250 C 183.414 179.072, 180.750 179.285, 173.363 182.976 M 62 182.808 C 62 184.471, 68.432 185.916, 98 190.900 C 127.606 195.890, 138.253 196.920, 135.899 194.566 C 135.661 194.327, 130.298 193.434, 123.983 192.581 C 114.412 191.288, 76.881 184.791, 65.250 182.414 C 63.213 181.998, 62 182.145, 62 182.808 M 61.550 187.908 C 63.738 190, 134.353 201.980, 135.825 200.509 C 137.035 199.298, 134.217 198.114, 128.752 197.535 C 120.358 196.647, 95.495 192.599, 79.500 189.516 C 65.849 186.885, 59.925 186.355, 61.550 187.908 M 62.219 192.369 C 65.486 194.851, 135.130 206.203, 136.807 204.527 C 137.820 203.514, 136.403 203.129, 127.485 201.992 C 117.177 200.677, 80.806 194.555, 70.685 192.431 C 66.936 191.644, 63.111 191.014, 62.185 191.032 C 60.622 191.061, 60.624 191.158, 62.219 192.369 M 34.010 195.794 C 34.024 198.227, 38.378 207.249, 40.309 208.846 C 44.663 212.447, 145.557 228.974, 163.300 228.993 C 170.959 229.001, 174.477 227.598, 178.354 222.991 C 180.971 219.881, 183.797 212.463, 182.760 211.426 C 182.451 211.118, 179.919 212.021, 177.133 213.433 C 169.623 217.238, 160.078 216.908, 119.507 211.439 C 85.415 206.843, 51.247 200.178, 38.250 195.589 C 34.324 194.203, 34.001 194.219, 34.010 195.794 M 61.529 195.953 C 60.740 197.230, 65.253 198.329, 86 201.912 C 101.612 204.608, 133.141 208.993, 136.950 208.998 C 137.852 208.999, 138.041 208.655, 137.450 208.086 C 136.927 207.583, 132.225 206.665, 127 206.045 C 114.212 204.528, 89.823 200.519, 74.913 197.482 C 60.696 194.587, 62.263 194.766, 61.529 195.953" stroke="none" fill="#fcf5f1" fill-rule="evenodd"/></svg>