<svg xmlns="http://www.w3.org/2000/svg" width="242" height="168" viewBox="0 0 242 168" version="1.1"><path d="M 0.228 84.250 C 0.354 130.588, 0.588 159.387, 0.749 148.250 L 1.041 128 4.362 128 C 7.607 128, 7.685 127.900, 7.749 123.629 C 7.971 108.979, 25.014 100.927, 35.784 110.384 C 44.400 117.949, 44.046 131.574, 35.075 137.700 C 28.742 142.024, 17.727 141.671, 13.508 137.009 C 10.658 133.859, 10 134.570, 10 140.800 C 10 143.990, 9.511 147.089, 8.913 147.687 C 8.130 148.470, 8.130 148.962, 8.913 149.446 C 9.511 149.816, 10 151.891, 10 154.059 C 10 156.517, 10.470 158.020, 11.250 158.053 C 11.938 158.083, 28.604 158.195, 48.287 158.303 C 77.178 158.462, 84.235 158.761, 84.912 159.857 C 85.522 160.844, 85.944 160.900, 86.462 160.062 C 86.970 159.239, 94.218 158.936, 111.837 159.003 C 125.402 159.054, 140.887 159.074, 146.250 159.048 L 156 159 156 143.500 L 156 128 161.116 128 L 166.233 128 165.922 137.250 C 165.752 142.338, 165.699 151.343, 165.806 157.262 L 166 168.024 204.250 167.762 L 242.500 167.500 242.756 83.750 L 243.011 0 121.506 0 L 0 0 0.228 84.250 M 0.230 84.758 C 0.356 130.816, 0.590 158.488, 0.749 146.250 C 0.994 127.397, 1.264 124, 2.519 124 C 3.382 124, 4.009 123.061, 4.022 121.750 C 4.055 118.367, 7.381 111.844, 10.624 108.803 C 16.792 103.019, 25.982 101.446, 33.541 104.880 C 37.330 106.601, 42.236 111.309, 43.265 114.213 C 43.548 115.012, 45.299 113.726, 47.879 110.826 C 55.478 102.283, 66.743 100.629, 75.485 106.773 C 79.991 109.940, 83.959 116.182, 83.984 120.143 C 83.993 121.619, 84.699 123.054, 85.582 123.393 C 86.452 123.727, 98.114 124, 111.498 124 C 130.031 124, 135.954 123.702, 136.338 122.750 C 136.741 121.750, 136.858 121.750, 136.921 122.750 C 136.982 123.717, 143.122 124, 164.067 124 C 190.556 124, 191.121 123.958, 190.509 122.027 C 190.161 120.933, 190.743 118.108, 191.816 115.684 C 199.858 97.504, 225.670 99.595, 230.527 118.821 C 231.640 123.225, 231.924 123.518, 235.355 123.810 C 237.360 123.981, 238.993 123.756, 238.984 123.310 C 238.913 119.613, 235.881 110.706, 234.205 109.270 C 232.453 107.770, 229.906 100.708, 225.403 84.866 C 225.034 83.567, 222.641 83.012, 213.719 82.156 C 197.318 80.582, 179.548 79, 178.280 79 C 177.673 79, 175.924 75.808, 174.394 71.906 C 170.718 62.539, 164.189 56.530, 150.500 49.919 C 135.189 42.525, 108.039 36.063, 104.528 38.977 C 103.302 39.994, 102.909 39.927, 102.405 38.613 C 101.919 37.346, 100.314 37, 94.922 37 L 88.057 37 88.068 65.167 C 88.076 87.077, 87.792 93.515, 86.789 94.151 C 85.498 94.971, 55.643 95.318, 27.500 94.840 C 19.250 94.700, 9.912 94.567, 6.750 94.543 C 1.279 94.502, 1 94.378, 1 91.974 C 1 89.630, 1.289 89.475, 4.991 89.828 C 8.061 90.121, 9.134 89.815, 9.637 88.503 C 10.019 87.508, 9.710 86.437, 8.896 85.930 C 7.758 85.221, 7.731 84.688, 8.750 83.044 C 9.689 81.529, 10 72.182, 10 45.514 L 10 10 15.250 9.969 C 18.138 9.952, 46.721 9.966, 78.770 9.999 C 130.185 10.053, 137.109 9.880, 137.627 8.530 C 138.383 6.559, 141 6.536, 141 8.500 C 141 9.700, 142.500 10, 148.500 10 L 156 10 156.177 22.250 C 156.275 28.988, 156.231 37.279, 156.080 40.676 L 155.806 46.853 159.883 49.426 C 162.126 50.842, 164.194 52, 164.480 52 C 164.766 52, 165 40.529, 165 26.509 L 165 1.019 82.500 1.018 L 0 1.017 0.230 84.758 M 1 44.941 C 1 47.356, 1.556 47.599, 2.349 45.532 C 2.659 44.725, 2.482 43.798, 1.956 43.473 C 1.430 43.148, 1 43.809, 1 44.941 M 99.709 65.624 C 99.319 66.014, 99 68.979, 99 72.212 L 99 78.091 105.750 77.796 L 112.500 77.500 112.500 71.500 L 112.500 65.500 106.459 65.208 C 103.136 65.047, 100.099 65.234, 99.709 65.624 M 120 89.441 C 120 104.656, 120.377 114.115, 121 114.500 C 121.657 114.906, 122 106.510, 122 90.059 C 122 74.020, 121.640 65, 121 65 C 120.361 65, 120 73.814, 120 89.441 M 145.667 65.667 C 145.300 66.033, 145 68.910, 145 72.060 C 145 76.359, 145.394 77.937, 146.582 78.393 C 147.452 78.727, 153.752 79, 160.582 79 C 169.850 79, 173 78.683, 172.999 77.750 C 172.998 75.371, 169.315 66.813, 167.910 65.923 C 166.283 64.893, 146.666 64.667, 145.667 65.667 M 217 95.435 C 217 95.674, 217.439 97.024, 217.975 98.435 C 218.799 100.602, 219.575 101, 222.975 101 C 227.072 101, 227.751 100.122, 226.393 96.582 C 225.967 95.472, 224.476 95, 221.393 95 C 218.977 95, 217 95.196, 217 95.435 M 197.187 100.803 C 190.747 103.276, 187.205 106.826, 184.518 113.500 C 182.444 118.653, 181.666 119.589, 179.001 120.134 C 173.785 121.200, 174.370 122, 180.365 122 C 184.067 122, 186.187 121.562, 186.417 120.750 C 186.612 120.063, 187.324 117.477, 187.999 115.005 C 189.460 109.658, 196.155 102.452, 200.549 101.498 C 202.172 101.146, 204.400 100.470, 205.500 99.996 C 209.422 98.308, 201.746 99.053, 197.187 100.803 M 56.168 108.146 C 48.768 111.809, 44.883 120.137, 46.965 127.871 C 50.010 139.178, 62.407 144.399, 72.500 138.625 C 82.445 132.935, 83.906 118.792, 75.373 110.814 C 69.754 105.560, 63.225 104.653, 56.168 108.146 M 203.421 107.837 C 195.636 111.486, 191.760 119.728, 193.939 128 C 195.377 133.458, 198.632 137.252, 201.183 136.442 C 202.517 136.018, 203 136.386, 203 137.826 C 203 141.753, 212.305 142.259, 219.040 138.697 C 230.429 132.675, 230.720 115.759, 219.560 108.447 C 215.724 105.934, 208.097 105.646, 203.421 107.837 M 19.674 117.148 C 15.646 120.688, 15.221 124.920, 18.500 128.818 C 23.784 135.097, 33 131.905, 33 123.796 C 33 119.172, 30.408 116.084, 25.925 115.367 C 23.084 114.912, 21.800 115.278, 19.674 117.148 M 58.046 117.800 C 54.294 121.552, 54.159 124.847, 57.589 128.923 C 62.787 135.101, 72 131.823, 72 123.796 C 72 119.133, 69.400 116.083, 64.796 115.346 C 61.594 114.834, 60.680 115.166, 58.046 117.800 M 204.923 117.923 C 201.665 121.181, 201.293 123.732, 203.463 127.928 C 205.975 132.785, 212.499 133.592, 216.545 129.545 C 220.592 125.499, 219.785 118.975, 214.928 116.463 C 210.732 114.293, 208.181 114.665, 204.923 117.923 M 91.543 118.931 C 90.860 120.036, 92.437 121.230, 93.361 120.306 C 94.311 119.355, 94.134 118, 93.059 118 C 92.541 118, 91.859 118.419, 91.543 118.931" stroke="none" fill="#f7f704" fill-rule="evenodd"/><path d="M 1 21.950 C 1 34.863, 1.384 43.119, 2.003 43.502 C 2.671 43.915, 2.664 44.759, 1.982 46.033 C 1.353 47.210, 1.063 55.932, 1.230 68.722 L 1.500 89.500 5.258 89.811 C 8.034 90.040, 9.183 89.688, 9.654 88.460 C 10.017 87.512, 9.692 86.425, 8.896 85.930 C 7.758 85.221, 7.731 84.688, 8.750 83.044 C 9.689 81.529, 10 72.182, 10 45.514 L 10 10 15.250 9.969 C 18.138 9.952, 46.721 9.966, 78.770 9.999 C 130.185 10.053, 137.109 9.880, 137.627 8.530 C 138.383 6.559, 141 6.536, 141 8.500 C 141 9.700, 142.500 10, 148.500 10 L 156 10 156.177 22.250 C 156.275 28.988, 156.231 37.279, 156.080 40.676 L 155.806 46.853 159.883 49.426 C 162.126 50.842, 164.194 52, 164.480 52 C 164.766 52, 165 40.529, 165 26.509 L 165 1.019 83 1.018 L 1 1.017 1 21.950 M 88.068 65.167 C 88.076 87.077, 87.792 93.515, 86.789 94.151 C 85.519 94.957, 56.350 95.312, 28 94.867 C 20.025 94.742, 10.800 94.608, 7.500 94.570 L 1.500 94.500 1.223 109.250 C 0.985 121.930, 1.161 124, 2.473 124 C 3.383 124, 4.009 123.091, 4.022 121.750 C 4.055 118.367, 7.381 111.844, 10.624 108.803 C 16.792 103.019, 25.982 101.446, 33.541 104.880 C 37.330 106.601, 42.236 111.309, 43.265 114.213 C 43.548 115.012, 45.299 113.726, 47.879 110.826 C 55.478 102.283, 66.743 100.629, 75.485 106.773 C 79.991 109.940, 83.959 116.182, 83.984 120.143 C 83.993 121.619, 84.699 123.054, 85.582 123.393 C 86.452 123.727, 98.114 124, 111.498 124 C 130.031 124, 135.954 123.702, 136.338 122.750 C 136.741 121.750, 136.858 121.750, 136.921 122.750 C 136.982 123.717, 143.122 124, 164.067 124 C 190.556 124, 191.121 123.958, 190.509 122.027 C 190.161 120.933, 190.743 118.108, 191.816 115.684 C 199.858 97.504, 225.670 99.595, 230.527 118.821 C 231.640 123.225, 231.924 123.518, 235.355 123.810 C 237.360 123.981, 238.993 123.756, 238.984 123.310 C 238.913 119.613, 235.881 110.706, 234.205 109.270 C 232.453 107.770, 229.906 100.708, 225.403 84.866 C 225.034 83.567, 222.641 83.012, 213.719 82.156 C 197.318 80.582, 179.548 79, 178.280 79 C 177.673 79, 175.924 75.808, 174.394 71.906 C 170.718 62.539, 164.189 56.530, 150.500 49.919 C 135.189 42.525, 108.039 36.063, 104.528 38.977 C 103.302 39.994, 102.909 39.927, 102.405 38.613 C 101.919 37.346, 100.314 37, 94.922 37 L 88.057 37 88.068 65.167 M 99.709 65.624 C 99.319 66.014, 99 68.979, 99 72.212 L 99 78.091 105.750 77.796 L 112.500 77.500 112.500 71.500 L 112.500 65.500 106.459 65.208 C 103.136 65.047, 100.099 65.234, 99.709 65.624 M 120 89.441 C 120 104.656, 120.377 114.115, 121 114.500 C 121.657 114.906, 122 106.510, 122 90.059 C 122 74.020, 121.640 65, 121 65 C 120.361 65, 120 73.814, 120 89.441 M 145.667 65.667 C 145.300 66.033, 145 68.910, 145 72.060 C 145 76.359, 145.394 77.937, 146.582 78.393 C 147.452 78.727, 153.752 79, 160.582 79 C 169.850 79, 173 78.683, 172.999 77.750 C 172.998 75.371, 169.315 66.813, 167.910 65.923 C 166.283 64.893, 146.666 64.667, 145.667 65.667 M 217 95.435 C 217 95.674, 217.439 97.024, 217.975 98.435 C 218.799 100.602, 219.575 101, 222.975 101 C 227.072 101, 227.751 100.122, 226.393 96.582 C 225.967 95.472, 224.476 95, 221.393 95 C 218.977 95, 217 95.196, 217 95.435 M 197.187 100.803 C 190.747 103.276, 187.205 106.826, 184.518 113.500 C 182.444 118.653, 181.666 119.589, 179.001 120.134 C 173.785 121.200, 174.370 122, 180.365 122 C 184.067 122, 186.187 121.562, 186.417 120.750 C 186.612 120.063, 187.324 117.477, 187.999 115.005 C 189.460 109.658, 196.155 102.452, 200.549 101.498 C 202.172 101.146, 204.400 100.470, 205.500 99.996 C 209.422 98.308, 201.746 99.053, 197.187 100.803 M 19.500 107.064 C 13.073 108.956, 7.860 116.305, 7.749 123.629 C 7.685 127.905, 7.611 128, 4.342 128 L 1 128 1 147.978 L 1 167.956 83.465 167.982 L 165.930 168.009 165.838 148.004 L 165.746 128 160.873 128 L 156 128 156 143.500 L 156 159 146.250 159.048 C 140.887 159.074, 125.402 159.054, 111.837 159.003 C 94.218 158.936, 86.970 159.239, 86.462 160.062 C 85.944 160.900, 85.522 160.844, 84.912 159.857 C 84.235 158.761, 77.178 158.462, 48.287 158.303 C 28.604 158.195, 11.938 158.083, 11.250 158.053 C 10.479 158.020, 10 156.545, 10 154.200 C 10 152.110, 9.511 149.911, 8.913 149.313 C 8.130 148.530, 8.130 148.038, 8.913 147.554 C 9.511 147.184, 10 144.209, 10 140.941 C 10 134.573, 10.647 133.847, 13.508 137.009 C 17.727 141.671, 28.742 142.024, 35.075 137.700 C 46.566 129.854, 42.894 110.084, 29.362 106.944 C 24.777 105.880, 23.466 105.896, 19.500 107.064 M 56.168 108.146 C 48.768 111.809, 44.883 120.137, 46.965 127.871 C 50.010 139.178, 62.407 144.399, 72.500 138.625 C 82.445 132.935, 83.906 118.792, 75.373 110.814 C 69.754 105.560, 63.225 104.653, 56.168 108.146 M 203.421 107.837 C 195.636 111.486, 191.760 119.728, 193.939 128 C 195.377 133.458, 198.632 137.252, 201.183 136.442 C 202.517 136.018, 203 136.386, 203 137.826 C 203 141.753, 212.305 142.259, 219.040 138.697 C 230.429 132.675, 230.720 115.759, 219.560 108.447 C 215.724 105.934, 208.097 105.646, 203.421 107.837 M 19.674 117.148 C 15.646 120.688, 15.221 124.920, 18.500 128.818 C 23.784 135.097, 33 131.905, 33 123.796 C 33 119.172, 30.408 116.084, 25.925 115.367 C 23.084 114.912, 21.800 115.278, 19.674 117.148 M 58.046 117.800 C 54.294 121.552, 54.159 124.847, 57.589 128.923 C 62.787 135.101, 72 131.823, 72 123.796 C 72 119.133, 69.400 116.083, 64.796 115.346 C 61.594 114.834, 60.680 115.166, 58.046 117.800 M 204.923 117.923 C 201.665 121.181, 201.293 123.732, 203.463 127.928 C 205.975 132.785, 212.499 133.592, 216.545 129.545 C 220.592 125.499, 219.785 118.975, 214.928 116.463 C 210.732 114.293, 208.181 114.665, 204.923 117.923 M 91.543 118.931 C 90.860 120.036, 92.437 121.230, 93.361 120.306 C 94.311 119.355, 94.134 118, 93.059 118 C 92.541 118, 91.859 118.419, 91.543 118.931" stroke="none" fill="#070704" fill-rule="evenodd"/></svg>