<svg xmlns="http://www.w3.org/2000/svg" width="224" height="155" viewBox="0 0 224 155" version="1.1"><path d="M 153 23.500 C 153 36.425, 152.662 46.998, 152.250 46.996 C 151.838 46.994, 149.997 46.076, 148.160 44.956 C 144.949 42.999, 144.829 42.700, 145.030 37.210 C 145.145 34.070, 145.185 26.213, 145.119 19.750 L 145 8 138.050 8 C 132.497 8, 130.889 7.648, 130.050 6.250 C 129.053 4.585, 128.935 4.586, 127.628 6.268 C 126.341 7.923, 122.535 8.031, 67.502 7.976 C 35.189 7.943, 8.594 8.072, 8.404 8.263 C 8.214 8.453, 8.015 25.122, 7.963 45.304 L 7.869 82 3.934 82 C 0.309 82, 0 82.216, 0.001 84.750 L 0.002 87.500 20.251 87.306 C 31.388 87.199, 49.612 87.087, 60.750 87.056 L 81 87 81.015 75.250 C 81.024 68.787, 81.448 62.840, 81.958 62.034 C 82.535 61.122, 82.517 60.123, 81.911 59.393 C 81.359 58.727, 81.059 52.866, 81.218 45.859 L 81.500 33.500 87.458 33.778 C 90.786 33.932, 93.752 34.595, 94.177 35.278 C 94.739 36.179, 95.406 36.216, 96.719 35.417 C 100.934 32.855, 127.861 39.682, 141.124 46.675 C 152.457 52.650, 157.990 58.003, 161.244 66.142 C 163.786 72.497, 163.789 72.500, 168.643 73.248 C 172.663 73.868, 193.693 75.693, 204.200 76.335 C 205.685 76.426, 207.319 76.950, 207.832 77.500 C 208.345 78.050, 210.207 83.225, 211.972 89 C 213.736 94.775, 215.996 100.400, 216.994 101.500 C 218.673 103.351, 220.981 109.842, 220.994 112.750 C 220.998 113.462, 219.760 114, 218.119 114 C 215.541 114, 215.119 113.529, 214.111 109.526 C 212.889 104.672, 208.246 98.672, 204.102 96.592 C 192.486 90.760, 178.726 97.581, 176.042 110.500 L 175.419 113.500 152.085 113.769 C 135.712 113.957, 128.340 113.697, 127.375 112.896 C 126.346 112.042, 126 112.042, 126 112.896 C 126 113.725, 119.535 113.963, 102.293 113.768 L 78.587 113.500 77.389 109.361 C 75.648 103.344, 73.300 100.260, 68.177 97.258 C 64.703 95.222, 62.413 94.626, 58.422 94.719 C 52.101 94.867, 48.480 96.620, 43.809 101.790 L 40.268 105.709 37.583 102.344 C 34.036 97.899, 30.821 95.888, 25.709 94.917 C 15.271 92.936, 5.397 99.711, 2.998 110.500 C 2.632 112.150, 1.807 113.387, 1.166 113.250 C 0.477 113.102, 0 114.255, 0 116.063 C 0 118.917, 0.222 119.105, 3.250 118.813 C 6.176 118.531, 6.527 118.151, 6.770 115 C 7.233 108.997, 7.933 107.146, 11.106 103.532 C 21.487 91.709, 40.493 101.900, 37.528 117.701 C 35.781 127.016, 23.901 132.541, 15.181 128.093 C 12.956 126.957, 10.854 125.572, 10.509 125.014 C 8.988 122.553, 8 124.437, 8 129.800 C 8 132.990, 7.511 136.089, 6.913 136.687 C 6.130 137.470, 6.130 137.962, 6.913 138.446 C 7.511 138.816, 8 140.891, 8 143.059 L 8 147 42.917 147 C 69.872 147, 77.966 147.285, 78.417 148.250 C 78.877 149.236, 79.127 149.226, 79.599 148.202 C 80.067 147.190, 85.183 146.926, 102.849 147.003 C 115.307 147.058, 129.887 147.079, 135.250 147.051 L 145 147 145 133 L 145 119 149.103 119 L 153.205 119 152.969 126.750 C 152.838 131.012, 152.792 139.113, 152.866 144.750 L 153 155 188.500 155 L 224 155 224.085 136.250 C 224.132 125.938, 224.138 99.725, 224.098 78 C 224.058 56.275, 224.020 29.838, 224.013 19.250 L 224 0 188.500 0 L 153 0 153 23.500 M 91.428 60.327 C 91.127 61.112, 91.020 63.947, 91.190 66.627 L 91.500 71.500 97.799 71.799 L 104.098 72.098 103.799 65.799 L 103.500 59.500 97.738 59.200 C 93.461 58.977, 91.835 59.267, 91.428 60.327 M 111 82.500 C 111 100.989, 111.273 106.076, 112.250 105.750 C 113.201 105.433, 113.500 99.878, 113.500 82.500 C 113.500 65.122, 113.201 59.567, 112.250 59.250 C 111.273 58.924, 111 64.011, 111 82.500 M 134.409 60.377 C 134.118 61.134, 134.020 63.947, 134.190 66.627 L 134.500 71.500 147.250 71.780 C 157.838 72.012, 160 71.814, 160 70.613 C 160 67.894, 156.198 60.290, 154.516 59.644 C 153.592 59.290, 148.809 59, 143.887 59 C 137.209 59, 134.803 59.350, 134.409 60.377 M 0.232 85 C 0.232 86.925, 0.438 87.713, 0.689 86.750 C 0.941 85.787, 0.941 84.213, 0.689 83.250 C 0.438 82.287, 0.232 83.075, 0.232 85 M 201 88.066 C 201 91.205, 203.195 93, 207.035 93 C 211.202 93, 211.335 92.850, 210.370 89.250 C 209.861 87.351, 209.084 87, 205.383 87 C 202.948 87, 201 87.474, 201 88.066 M 179.864 93.791 C 175.164 96.237, 174.091 97.405, 171.196 103.224 C 168.501 108.639, 167.347 109.984, 164.946 110.512 C 160.099 111.576, 161.591 113.129, 167.147 112.802 C 172.498 112.488, 173.415 111.749, 174.412 106.941 C 175.402 102.167, 179.452 97.551, 185.523 94.278 C 191.129 91.256, 191.306 91.054, 188.364 91.028 C 186.639 91.013, 182.814 92.256, 179.864 93.791 M 53.684 99.416 C 46.654 101.983, 43 106.993, 43 114.064 C 43 122.333, 50.290 130, 58.152 130 C 62.954 130, 70.043 125.909, 72.195 121.896 C 74.390 117.804, 74.531 110.928, 72.501 107.002 C 69.008 100.248, 60.642 96.875, 53.684 99.416 M 190.475 99.029 C 186.208 100.315, 181.004 106.055, 179.961 110.628 C 178.402 117.463, 181.758 125.500, 186.171 125.500 C 187.537 125.500, 188.492 126.101, 188.495 126.963 C 188.498 127.767, 189.931 128.836, 191.680 129.337 C 201.849 132.253, 212.177 122.810, 210.717 111.930 C 209.471 102.636, 199.532 96.301, 190.475 99.029 M 16.455 108.455 C 12.247 112.662, 13.944 119.888, 19.649 122.057 C 23.066 123.356, 28.724 120.855, 30.008 117.479 C 33.135 109.254, 22.642 102.267, 16.455 108.455 M 53.913 107.282 C 49.590 110.601, 48.957 115.676, 52.370 119.644 C 55.692 123.506, 61.308 123.506, 64.630 119.644 C 67.686 116.091, 67.656 112, 64.548 108.646 C 61.865 105.752, 56.759 105.097, 53.913 107.282 M 189.455 108.455 C 185.064 112.845, 187.388 120.877, 193.493 122.409 C 198.378 123.635, 204 118.793, 204 113.358 C 204 112.526, 202.685 110.531, 201.077 108.923 C 197.347 105.193, 192.895 105.014, 189.455 108.455 M 84.500 110 C 84.160 110.550, 84.359 111, 84.941 111 C 85.523 111, 86 110.550, 86 110 C 86 109.450, 85.802 109, 85.559 109 C 85.316 109, 84.840 109.450, 84.500 110 M 0.232 116 C 0.232 117.925, 0.438 118.713, 0.689 117.750 C 0.941 116.787, 0.941 115.213, 0.689 114.250 C 0.438 113.287, 0.232 114.075, 0.232 116" stroke="none" fill="#050505" fill-rule="evenodd"/><path d="M 0.035 41 L 0.035 82 3.952 82 L 7.869 82 7.963 45.304 C 8.015 25.122, 8.214 8.453, 8.404 8.263 C 8.594 8.072, 35.189 7.943, 67.502 7.976 C 122.535 8.031, 126.341 7.923, 127.628 6.268 C 128.935 4.586, 129.053 4.585, 130.050 6.250 C 130.889 7.648, 132.497 8, 138.050 8 L 145 8 145.119 19.750 C 145.185 26.213, 145.145 34.070, 145.030 37.210 C 144.829 42.700, 144.949 42.999, 148.160 44.956 C 149.997 46.076, 151.838 46.994, 152.250 46.996 C 152.662 46.998, 153 36.425, 153 23.500 L 153 0 76.518 0 L 0.035 0 0.035 41 M 81.750 33.583 C 80.605 34.728, 80.840 58.783, 82.003 59.502 C 82.673 59.916, 82.673 60.743, 82.003 61.995 C 81.451 63.025, 81 69.073, 81 75.434 L 81 87 60.750 87.065 C 49.612 87.101, 31.500 87.213, 20.500 87.315 L 0.500 87.500 0.500 100.250 C 0.500 112.438, 1.663 117.130, 3.042 110.500 C 5.265 99.807, 15.262 92.934, 25.709 94.917 C 30.821 95.888, 34.036 97.899, 37.583 102.344 L 40.268 105.709 43.809 101.790 C 48.480 96.620, 52.101 94.867, 58.422 94.719 C 62.413 94.626, 64.703 95.222, 68.177 97.258 C 73.300 100.260, 75.648 103.344, 77.389 109.361 L 78.587 113.500 102.293 113.768 C 119.535 113.963, 126 113.725, 126 112.896 C 126 112.042, 126.346 112.042, 127.375 112.896 C 128.340 113.697, 135.712 113.957, 152.085 113.769 L 175.419 113.500 176.042 110.500 C 178.726 97.581, 192.486 90.760, 204.102 96.592 C 208.246 98.672, 212.889 104.672, 214.111 109.526 C 215.119 113.529, 215.541 114, 218.119 114 C 219.760 114, 220.998 113.462, 220.994 112.750 C 220.981 109.842, 218.673 103.351, 216.994 101.500 C 215.996 100.400, 213.736 94.775, 211.972 89 C 210.207 83.225, 208.345 78.050, 207.832 77.500 C 207.319 76.950, 205.685 76.426, 204.200 76.335 C 193.693 75.693, 172.663 73.868, 168.643 73.248 C 163.789 72.500, 163.786 72.497, 161.244 66.142 C 157.990 58.003, 152.457 52.650, 141.124 46.675 C 127.861 39.682, 100.934 32.855, 96.719 35.417 C 95.424 36.205, 94.743 36.187, 94.219 35.352 C 93.367 33.991, 82.835 32.497, 81.750 33.583 M 91.428 60.327 C 91.127 61.112, 91.020 63.947, 91.190 66.627 L 91.500 71.500 97.799 71.799 L 104.098 72.098 103.799 65.799 L 103.500 59.500 97.738 59.200 C 93.461 58.977, 91.835 59.267, 91.428 60.327 M 111 82.500 C 111 100.989, 111.273 106.076, 112.250 105.750 C 113.201 105.433, 113.500 99.878, 113.500 82.500 C 113.500 65.122, 113.201 59.567, 112.250 59.250 C 111.273 58.924, 111 64.011, 111 82.500 M 134.409 60.377 C 134.118 61.134, 134.020 63.947, 134.190 66.627 L 134.500 71.500 147.250 71.780 C 157.838 72.012, 160 71.814, 160 70.613 C 160 67.894, 156.198 60.290, 154.516 59.644 C 153.592 59.290, 148.809 59, 143.887 59 C 137.209 59, 134.803 59.350, 134.409 60.377 M 201 88.066 C 201 91.205, 203.195 93, 207.035 93 C 211.202 93, 211.335 92.850, 210.370 89.250 C 209.861 87.351, 209.084 87, 205.383 87 C 202.948 87, 201 87.474, 201 88.066 M 179.864 93.791 C 175.164 96.237, 174.091 97.405, 171.196 103.224 C 168.501 108.639, 167.347 109.984, 164.946 110.512 C 160.099 111.576, 161.591 113.129, 167.147 112.802 C 172.498 112.488, 173.415 111.749, 174.412 106.941 C 175.402 102.167, 179.452 97.551, 185.523 94.278 C 191.129 91.256, 191.306 91.054, 188.364 91.028 C 186.639 91.013, 182.814 92.256, 179.864 93.791 M 17.619 99.003 C 14.474 99.979, 10.459 103.352, 8.696 106.500 C 8.080 107.600, 7.334 110.750, 7.038 113.500 C 6.524 118.280, 6.357 118.514, 3.250 118.813 L -0 119.127 -0 137.048 L 0 154.969 76.477 154.987 L 152.954 155.006 152.898 137.003 L 152.842 119 148.921 119 L 145 119 145 133 L 145 147 135.250 147.051 C 129.887 147.079, 115.307 147.058, 102.849 147.003 C 85.183 146.926, 80.067 147.190, 79.599 148.202 C 79.127 149.226, 78.877 149.236, 78.417 148.250 C 77.966 147.285, 69.872 147, 42.917 147 L 8 147 8 143.200 C 8 141.110, 7.511 138.911, 6.913 138.313 C 6.130 137.530, 6.130 137.038, 6.913 136.554 C 7.511 136.184, 8 133.209, 8 129.941 C 8 124.455, 8.977 122.536, 10.509 125.014 C 10.854 125.572, 12.956 126.957, 15.181 128.093 C 26.286 133.758, 39.385 124.363, 37.717 111.930 C 36.479 102.700, 26.465 96.259, 17.619 99.003 M 53.684 99.416 C 46.654 101.983, 43 106.993, 43 114.064 C 43 122.333, 50.290 130, 58.152 130 C 62.954 130, 70.043 125.909, 72.195 121.896 C 74.390 117.804, 74.531 110.928, 72.501 107.002 C 69.008 100.248, 60.642 96.875, 53.684 99.416 M 190.475 99.029 C 186.208 100.315, 181.004 106.055, 179.961 110.628 C 178.402 117.463, 181.758 125.500, 186.171 125.500 C 187.537 125.500, 188.492 126.101, 188.495 126.963 C 188.498 127.767, 189.931 128.836, 191.680 129.337 C 201.849 132.253, 212.177 122.810, 210.717 111.930 C 209.471 102.636, 199.532 96.301, 190.475 99.029 M 16.455 108.455 C 12.247 112.662, 13.944 119.888, 19.649 122.057 C 23.066 123.356, 28.724 120.855, 30.008 117.479 C 33.135 109.254, 22.642 102.267, 16.455 108.455 M 53.913 107.282 C 49.590 110.601, 48.957 115.676, 52.370 119.644 C 55.692 123.506, 61.308 123.506, 64.630 119.644 C 67.686 116.091, 67.656 112, 64.548 108.646 C 61.865 105.752, 56.759 105.097, 53.913 107.282 M 189.455 108.455 C 185.064 112.845, 187.388 120.877, 193.493 122.409 C 198.378 123.635, 204 118.793, 204 113.358 C 204 112.526, 202.685 110.531, 201.077 108.923 C 197.347 105.193, 192.895 105.014, 189.455 108.455 M 84.500 110 C 84.160 110.550, 84.359 111, 84.941 111 C 85.523 111, 86 110.550, 86 110 C 86 109.450, 85.802 109, 85.559 109 C 85.316 109, 84.840 109.450, 84.500 110" stroke="none" fill="#f3f3f3" fill-rule="evenodd"/></svg>